<?xml version="1.0" encoding="utf-8"?>
<!-- Generator: Adobe Illustrator 27.5.0, SVG Export Plug-In . SVG Version: 6.00 Build 0)  -->
<svg version="1.1" id="图层_1" xmlns="http://www.w3.org/2000/svg" xmlns:xlink="http://www.w3.org/1999/xlink" x="0px" y="0px"
	 viewBox="0 0 1125 1888.68" style="enable-background:new 0 0 1125 1888.68;" xml:space="preserve">
<style type="text/css">
	.st0{fill:#88FFF6;}
	.st1{fill:url(#SVGID_1_);}
	.st2{fill:url(#SVGID_00000049937353408420369310000010999849795027710353_);}
	.st3{fill:url(#SVGID_00000147200763256389283440000004039531593556326310_);}
	.st4{fill:url(#SVGID_00000017502362939276049950000017037654565817680771_);}
	.st5{fill:#BAD0D1;}
	.st6{fill:#52D593;}
	.st7{fill:#FFFFFF;}
	.st8{fill:#1C8862;}
	.st9{fill:none;stroke:#174542;stroke-width:6.0371;stroke-miterlimit:10;}
	.st10{fill:#FEFFFE;}
</style>
<g>
	<rect x="-1389.19" width="3903.37" height="1900.34"/>
	<g>
		<path class="st0" d="M129.44,670.56v2.77h-9.83v25.08h-3.16v-25.08h-9.83v-2.77H129.44z"/>
		<path class="st0" d="M137.59,670v11.55c0.7-1.29,1.64-2.26,2.81-2.93c1.1-0.62,2.3-0.94,3.66-0.94c2.34,0,4.18,0.66,5.42,2.07
			c1.25,1.37,1.87,3.35,1.87,5.93v12.72h-3.12v-12.25c0-1.87-0.47-3.32-1.33-4.33c-0.94-1.02-2.22-1.52-3.9-1.52
			c-1.56,0-2.85,0.62-3.86,1.87c-1.06,1.25-1.56,2.85-1.56,4.72v11.51h-3.12v-28.4h3.13L137.59,670L137.59,670z"/>
		<path class="st0" d="M173.76,680.97c1.48,1.95,2.26,4.72,2.34,8.23h-15.92c0.15,2.26,0.74,4.01,1.83,5.26
			c1.1,1.25,2.62,1.87,4.53,1.87c1.64,0,3.01-0.43,4.01-1.25c0.86-0.7,1.52-1.75,2.03-3.16h3.12c-0.46,1.95-1.37,3.51-2.73,4.76
			c-1.68,1.48-3.82,2.26-6.44,2.26c-2.89,0-5.23-0.98-6.94-2.85c-1.79-1.95-2.66-4.53-2.66-7.8c0-2.97,0.82-5.46,2.54-7.46
			c1.72-2.1,4.01-3.16,6.94-3.16C169.67,677.69,172.12,678.79,173.76,680.97z M162.17,682.07c-1.1,1.17-1.72,2.73-1.91,4.72h12.6
			c-0.39-4.33-2.54-6.48-6.36-6.48C164.71,680.31,163.27,680.89,162.17,682.07z"/>
		<path class="st0" d="M213.17,680.93c1.52,1.95,2.3,4.41,2.3,7.46c0,2.97-0.78,5.42-2.26,7.38c-1.64,2.1-3.86,3.2-6.75,3.2
			c-2.89,0-5.11-1.41-6.67-4.22v11.39h-3.12v-27.89h2.93v3.32c1.44-2.58,3.66-3.86,6.71-3.86
			C209.19,677.69,211.49,678.75,213.17,680.93z M201.19,682.65c-1.02,1.41-1.52,3.28-1.52,5.54v0.39c0,2.34,0.54,4.22,1.72,5.65
			c1.1,1.41,2.54,2.14,4.41,2.14c2.18,0,3.82-0.78,4.95-2.26c1.02-1.41,1.52-3.32,1.52-5.74c0-2.38-0.5-4.3-1.44-5.69
			c-1.13-1.64-2.77-2.41-4.92-2.41C203.88,680.27,202.28,681.05,201.19,682.65z"/>
		<path class="st0" d="M236.65,679.95c1.17,1.33,1.79,3.16,1.79,5.5v12.95h-2.93v-3.39c-0.78,1.1-1.83,1.99-3.08,2.7
			c-1.48,0.82-3.16,1.25-5.03,1.25c-2.03,0-3.63-0.5-4.84-1.52c-1.25-1.06-1.87-2.41-1.87-4.05c0-2.3,0.9-4.01,2.77-5.19
			c1.64-1.1,3.97-1.68,7.02-1.72l4.84-0.08v-1.06c0-3.39-1.75-5.07-5.26-5.07c-1.48,0-2.7,0.27-3.63,0.9
			c-1.06,0.62-1.72,1.6-2.03,2.89l-3.08-0.23c0.43-2.1,1.48-3.7,3.12-4.72c1.48-0.94,3.39-1.41,5.82-1.41
			C233.15,677.69,235.25,678.43,236.65,679.95z M230.68,688.81c-4.53,0.08-6.79,1.56-6.79,4.49c0,0.94,0.35,1.68,1.13,2.3
			c0.78,0.58,1.79,0.9,3.04,0.9c1.91,0,3.59-0.62,5.07-1.87c1.44-1.21,2.18-2.62,2.18-4.18v-1.72L230.68,688.81z"/>
		<path class="st0" d="M260.34,681.71v-3.47h3.12v18.77c0,6.44-3.08,9.68-9.21,9.68c-2.73,0-4.84-0.54-6.24-1.64
			c-1.44-1.1-2.34-2.73-2.7-4.92h3.12c0.23,1.37,0.81,2.38,1.72,3.01c0.9,0.66,2.26,1.02,4.1,1.02c4.05,0,6.09-2.26,6.09-6.71v-3.55
			c-1.48,2.7-3.74,4.05-6.79,4.05c-2.81,0-5.03-0.98-6.67-2.89c-1.64-1.87-2.41-4.26-2.41-7.17c0-2.97,0.78-5.34,2.41-7.21
			c1.64-1.99,3.86-2.97,6.67-2.97C256.59,677.69,258.86,679.02,260.34,681.71z M249.3,682.45c-1.1,1.33-1.64,3.16-1.64,5.42
			c0,2.1,0.47,3.86,1.44,5.19c1.1,1.48,2.7,2.26,4.88,2.26c2.03,0,3.59-0.7,4.76-2.1c1.1-1.37,1.64-3.16,1.64-5.34
			c0-2.26-0.54-4.1-1.64-5.42c-1.17-1.48-2.73-2.18-4.72-2.18C251.98,680.27,250.42,680.97,249.3,682.45z"/>
		<path class="st0" d="M285.89,680.97c1.48,1.95,2.26,4.72,2.34,8.23h-15.92c0.15,2.26,0.74,4.01,1.83,5.26
			c1.1,1.25,2.62,1.87,4.53,1.87c1.64,0,3.01-0.43,4.01-1.25c0.86-0.7,1.52-1.75,2.03-3.16h3.12c-0.46,1.95-1.37,3.51-2.73,4.76
			c-1.68,1.48-3.82,2.26-6.44,2.26c-2.89,0-5.23-0.98-6.94-2.85c-1.79-1.95-2.66-4.53-2.66-7.8c0-2.97,0.82-5.46,2.54-7.46
			c1.72-2.1,4.01-3.16,6.94-3.16C281.8,677.69,284.25,678.79,285.89,680.97z M274.31,682.07c-1.1,1.17-1.72,2.73-1.91,4.72H285
			c-0.39-4.33-2.54-6.48-6.36-6.48C276.85,680.31,275.4,680.89,274.31,682.07z"/>
		<path class="st0" d="M313.05,671.29c0.47,0.39,0.7,0.94,0.7,1.64c0,0.66-0.23,1.21-0.7,1.68c-0.46,0.43-1.02,0.66-1.68,0.66
			c-0.66,0-1.21-0.23-1.68-0.66c-0.47-0.47-0.66-1.02-0.66-1.68c0-0.7,0.19-1.25,0.66-1.64c0.46-0.47,1.02-0.66,1.68-0.66
			C312.03,670.63,312.59,670.83,313.05,671.29z M312.93,678.24v20.17h-3.12v-20.17H312.93z"/>
		<path class="st0" d="M336.14,683.97h-3.04c-0.27-1.25-0.78-2.18-1.56-2.73c-0.86-0.62-2.1-0.94-3.7-0.94
			c-1.41,0-2.5,0.23-3.28,0.78c-0.86,0.5-1.29,1.21-1.29,2.1c0,0.86,0.54,1.6,1.72,2.18c0.74,0.35,2.14,0.78,4.18,1.33
			c2.41,0.58,4.14,1.21,5.19,1.87c1.6,1.02,2.41,2.37,2.41,4.14c0,4.14-2.85,6.24-8.54,6.24c-5.3,0-8.19-2.34-8.66-6.98h3.04
			c0.23,1.6,0.82,2.73,1.68,3.43c0.86,0.62,2.14,0.94,3.86,0.94c3.59,0,5.42-1.17,5.42-3.43c0-1.13-0.66-1.99-1.91-2.62
			c-0.66-0.31-2.1-0.74-4.29-1.29c-2.38-0.58-4.05-1.17-4.99-1.79c-1.56-0.94-2.3-2.22-2.3-3.94c0-1.72,0.74-3.04,2.26-4.05
			c1.41-1.02,3.28-1.52,5.54-1.52C332.87,677.69,335.6,679.76,336.14,683.97z"/>
		<path class="st0" d="M360.45,678.24v12.33c0,1.91,0.39,3.35,1.21,4.3c0.82,0.94,2.14,1.44,3.97,1.44c1.33,0,2.54-0.54,3.59-1.56
			c1.1-1.1,1.76-2.5,1.99-4.22v-12.29h3.12v20.17h-3.12v-3.12c-1.64,2.41-3.82,3.67-6.55,3.67c-4.92,0-7.34-2.77-7.34-8.23v-12.49
			h3.12L360.45,678.24L360.45,678.24z"/>
		<path class="st0" d="M397.64,680.93c1.52,1.95,2.3,4.41,2.3,7.46c0,2.97-0.78,5.42-2.26,7.38c-1.64,2.1-3.86,3.2-6.75,3.2
			c-2.89,0-5.11-1.41-6.67-4.22v11.39h-3.12v-27.89h2.93v3.32c1.44-2.58,3.66-3.86,6.71-3.86
			C393.65,677.69,395.96,678.75,397.64,680.93z M385.65,682.65c-1.02,1.41-1.52,3.28-1.52,5.54v0.39c0,2.34,0.54,4.22,1.72,5.65
			c1.09,1.41,2.54,2.14,4.41,2.14c2.18,0,3.82-0.78,4.95-2.26c1.02-1.41,1.52-3.32,1.52-5.74c0-2.38-0.5-4.3-1.44-5.69
			c-1.13-1.64-2.77-2.41-4.92-2.41C388.35,680.27,386.75,681.05,385.65,682.65z"/>
		<path class="st0" d="M423.97,670v28.4h-2.93v-3.32c-1.41,2.58-3.66,3.86-6.71,3.86c-2.97,0-5.26-1.1-6.9-3.2
			c-1.52-1.95-2.26-4.45-2.26-7.49c0-2.97,0.74-5.38,2.26-7.34c1.64-2.18,3.86-3.24,6.75-3.24s5.11,1.41,6.67,4.26v-11.93h3.12V670z
			 M409.85,682.61c-1.02,1.37-1.48,3.24-1.48,5.65c0,2.41,0.47,4.33,1.44,5.74c1.1,1.56,2.73,2.38,4.92,2.38
			c2.03,0,3.59-0.78,4.72-2.34c0.98-1.41,1.48-3.24,1.48-5.5v-0.39c0-2.34-0.58-4.26-1.68-5.69c-1.13-1.48-2.62-2.18-4.41-2.18
			C412.62,680.27,410.94,681.05,409.85,682.61z"/>
		<path class="st0" d="M445.93,679.95c1.17,1.33,1.79,3.16,1.79,5.5v12.95h-2.93v-3.39c-0.78,1.1-1.83,1.99-3.08,2.7
			c-1.48,0.82-3.16,1.25-5.03,1.25c-2.03,0-3.63-0.5-4.84-1.52c-1.25-1.06-1.87-2.41-1.87-4.05c0-2.3,0.9-4.01,2.77-5.19
			c1.64-1.1,3.98-1.68,7.02-1.72l4.84-0.08v-1.06c0-3.39-1.75-5.07-5.26-5.07c-1.48,0-2.69,0.27-3.63,0.9
			c-1.06,0.62-1.72,1.6-2.03,2.89l-3.08-0.23c0.43-2.1,1.48-3.7,3.12-4.72c1.48-0.94,3.39-1.41,5.82-1.41
			C442.42,677.69,444.54,678.43,445.93,679.95z M439.97,688.81c-4.53,0.08-6.79,1.56-6.79,4.49c0,0.94,0.35,1.68,1.13,2.3
			c0.78,0.58,1.79,0.9,3.04,0.9c1.91,0,3.59-0.62,5.07-1.87c1.44-1.21,2.18-2.62,2.18-4.18v-1.72L439.97,688.81z"/>
		<path class="st0" d="M459.91,678.24h4.99v2.62h-4.99v12.84c0,0.74,0.12,1.29,0.43,1.6c0.27,0.31,0.78,0.5,1.48,0.5h2.58v2.62
			h-3.04c-1.64,0-2.85-0.43-3.55-1.29c-0.66-0.78-0.98-1.91-0.98-3.43v-12.84h-4.05v-2.62h4.05v-5.23l3.08-1.29V678.24z"/>
		<path class="st0" d="M474.58,671.29c0.47,0.39,0.7,0.94,0.7,1.64c0,0.66-0.23,1.21-0.7,1.68c-0.46,0.43-1.02,0.66-1.68,0.66
			c-0.66,0-1.21-0.23-1.68-0.66c-0.47-0.47-0.66-1.02-0.66-1.68c0-0.7,0.19-1.25,0.66-1.64c0.46-0.47,1.02-0.66,1.68-0.66
			C473.56,670.63,474.11,670.83,474.58,671.29z M474.46,678.24v20.17h-3.12v-20.17H474.46z"/>
		<path class="st0" d="M499.23,686v12.41h-3.12v-12.17c0-3.94-1.79-5.89-5.3-5.89c-1.41,0-2.62,0.5-3.63,1.52
			c-1.1,1.1-1.68,2.54-1.79,4.37v12.17h-3.12v-20.17h3.12v2.97c0.7-1.13,1.6-1.99,2.69-2.58c1.1-0.62,2.3-0.94,3.63-0.94
			C496.7,677.69,499.23,680.47,499.23,686z"/>
		<path class="st0" d="M521.13,681.71v-3.47h3.12v18.77c0,6.44-3.08,9.68-9.21,9.68c-2.73,0-4.84-0.54-6.24-1.64
			c-1.44-1.1-2.34-2.73-2.7-4.92h3.12c0.23,1.37,0.82,2.38,1.72,3.01c0.9,0.66,2.26,1.02,4.1,1.02c4.05,0,6.09-2.26,6.09-6.71v-3.55
			c-1.48,2.7-3.74,4.05-6.79,4.05c-2.81,0-5.03-0.98-6.67-2.89c-1.64-1.87-2.41-4.26-2.41-7.17c0-2.97,0.78-5.34,2.41-7.21
			c1.64-1.99,3.86-2.97,6.67-2.97C517.37,677.69,519.64,679.02,521.13,681.71z M510.08,682.45c-1.1,1.33-1.64,3.16-1.64,5.42
			c0,2.1,0.47,3.86,1.44,5.19c1.1,1.48,2.7,2.26,4.88,2.26c2.03,0,3.59-0.7,4.76-2.1c1.1-1.37,1.64-3.16,1.64-5.34
			c0-2.26-0.54-4.1-1.64-5.42c-1.17-1.48-2.73-2.18-4.72-2.18C512.77,680.27,511.22,680.97,510.08,682.45z"/>
		<path class="st0" d="M535.91,694.86c0.5,0.7,0.78,1.6,0.78,2.73c0,1.72-0.5,3.24-1.52,4.57c-1.02,1.25-2.38,2.1-4.05,2.54v-1.91
			c1.02-0.35,1.87-0.94,2.5-1.72c0.54-0.82,0.86-1.68,0.86-2.62c-0.19,0.08-0.46,0.16-0.86,0.16c-0.66,0-1.21-0.23-1.68-0.7
			c-0.47-0.47-0.7-1.06-0.7-1.72c0-0.74,0.23-1.33,0.74-1.75c0.43-0.47,1.02-0.66,1.79-0.66
			C534.62,693.77,535.36,694.12,535.91,694.86z"/>
		<path class="st0" d="M574.72,680.93c1.52,1.95,2.3,4.41,2.3,7.46c0,2.97-0.78,5.42-2.26,7.38c-1.64,2.1-3.86,3.2-6.75,3.2
			c-2.89,0-5.11-1.41-6.67-4.22v11.39h-3.12v-27.89h2.93v3.32c1.44-2.58,3.66-3.86,6.71-3.86
			C570.75,677.69,573.05,678.75,574.72,680.93z M562.75,682.65c-1.02,1.41-1.52,3.28-1.52,5.54v0.39c0,2.34,0.54,4.22,1.72,5.65
			c1.09,1.41,2.54,2.14,4.41,2.14c2.18,0,3.82-0.78,4.95-2.26c1.02-1.41,1.52-3.32,1.52-5.74c0-2.38-0.5-4.3-1.44-5.69
			c-1.13-1.64-2.77-2.41-4.92-2.41C565.45,680.27,563.85,681.05,562.75,682.65z"/>
		<path class="st0" d="M586.75,670v28.4h-3.08V670H586.75z"/>
		<path class="st0" d="M609.8,680.97c1.48,1.95,2.26,4.72,2.34,8.23h-15.92c0.16,2.26,0.74,4.01,1.83,5.26
			c1.09,1.25,2.62,1.87,4.53,1.87c1.64,0,3.01-0.43,4.01-1.25c0.86-0.7,1.52-1.75,2.03-3.16h3.12c-0.47,1.95-1.37,3.51-2.73,4.76
			c-1.68,1.48-3.82,2.26-6.44,2.26c-2.89,0-5.23-0.98-6.94-2.85c-1.79-1.95-2.66-4.53-2.66-7.8c0-2.97,0.82-5.46,2.54-7.46
			c1.72-2.1,4.01-3.16,6.94-3.16C605.71,677.69,608.17,678.79,609.8,680.97z M598.22,682.07c-1.1,1.17-1.72,2.73-1.91,4.72h12.6
			c-0.39-4.33-2.54-6.48-6.36-6.48C600.75,680.31,599.31,680.89,598.22,682.07z"/>
		<path class="st0" d="M632.94,679.95c1.17,1.33,1.79,3.16,1.79,5.5v12.95h-2.93v-3.39c-0.78,1.1-1.83,1.99-3.08,2.7
			c-1.48,0.82-3.16,1.25-5.03,1.25c-2.03,0-3.63-0.5-4.84-1.52c-1.25-1.06-1.87-2.41-1.87-4.05c0-2.3,0.9-4.01,2.77-5.19
			c1.64-1.1,3.98-1.68,7.02-1.72l4.84-0.08v-1.06c0-3.39-1.75-5.07-5.26-5.07c-1.48,0-2.69,0.27-3.63,0.9
			c-1.06,0.62-1.72,1.6-2.03,2.89l-3.08-0.23c0.43-2.1,1.48-3.7,3.12-4.72c1.48-0.94,3.39-1.41,5.82-1.41
			C629.43,677.69,631.53,678.43,632.94,679.95z M626.98,688.81c-4.53,0.08-6.79,1.56-6.79,4.49c0,0.94,0.35,1.68,1.13,2.3
			c0.78,0.58,1.79,0.9,3.04,0.9c1.91,0,3.59-0.62,5.07-1.87c1.44-1.21,2.18-2.62,2.18-4.18v-1.72L626.98,688.81z"/>
		<path class="st0" d="M656.94,683.97h-3.04c-0.27-1.25-0.78-2.18-1.56-2.73c-0.86-0.62-2.1-0.94-3.7-0.94
			c-1.41,0-2.5,0.23-3.28,0.78c-0.86,0.5-1.29,1.21-1.29,2.1c0,0.86,0.54,1.6,1.72,2.18c0.74,0.35,2.14,0.78,4.18,1.33
			c2.41,0.58,4.14,1.21,5.19,1.87c1.6,1.02,2.41,2.37,2.41,4.14c0,4.14-2.85,6.24-8.54,6.24c-5.3,0-8.19-2.34-8.66-6.98h3.04
			c0.23,1.6,0.82,2.73,1.68,3.43c0.86,0.62,2.14,0.94,3.86,0.94c3.59,0,5.42-1.17,5.42-3.43c0-1.13-0.66-1.99-1.91-2.62
			c-0.66-0.31-2.1-0.74-4.29-1.29c-2.38-0.58-4.05-1.17-4.99-1.79c-1.56-0.94-2.3-2.22-2.3-3.94c0-1.72,0.74-3.04,2.26-4.05
			c1.41-1.02,3.28-1.52,5.54-1.52C653.66,677.69,656.39,679.76,656.94,683.97z"/>
		<path class="st0" d="M678.82,680.97c1.48,1.95,2.26,4.72,2.34,8.23h-15.92c0.16,2.26,0.74,4.01,1.83,5.26
			c1.09,1.25,2.62,1.87,4.53,1.87c1.64,0,3.01-0.43,4.01-1.25c0.86-0.7,1.52-1.75,2.03-3.16h3.12c-0.47,1.95-1.37,3.51-2.73,4.76
			c-1.68,1.48-3.82,2.26-6.44,2.26c-2.89,0-5.23-0.98-6.94-2.85c-1.79-1.95-2.66-4.53-2.66-7.8c0-2.97,0.82-5.46,2.54-7.46
			c1.72-2.1,4.01-3.16,6.94-3.16C674.73,677.69,677.18,678.79,678.82,680.97z M667.23,682.07c-1.1,1.17-1.72,2.73-1.91,4.72h12.6
			c-0.39-4.33-2.54-6.48-6.36-6.48C669.77,680.31,668.33,680.89,667.23,682.07z"/>
		<path class="st0" d="M707.11,678.24h4.99v2.62h-4.99v12.84c0,0.74,0.12,1.29,0.43,1.6c0.27,0.31,0.78,0.5,1.48,0.5h2.58v2.62
			h-3.04c-1.64,0-2.85-0.43-3.55-1.29c-0.66-0.78-0.98-1.91-0.98-3.43v-12.84h-4.05v-2.62h4.05v-5.23l3.08-1.29L707.11,678.24
			L707.11,678.24z"/>
		<path class="st0" d="M729.15,678.16v3.12c-1.02-0.31-2.03-0.43-3.01-0.43c-1.56,0-2.89,0.66-3.94,2.07c-1.1,1.33-1.6,2.93-1.6,4.8
			v10.69h-3.08v-20.17h3.08v3.51c0.54-1.17,1.25-2.1,2.1-2.77c1.06-0.86,2.26-1.29,3.66-1.29
			C727.47,677.69,728.42,677.85,729.15,678.16z"/>
		<path class="st0" d="M734.89,678.24l6.17,15.92l5.97-15.92h3.43l-11.04,27.89h-3.39l3.47-8.19l-8-19.7L734.89,678.24
			L734.89,678.24z"/>
		<path class="st0" d="M785.15,679.95c1.17,1.33,1.79,3.16,1.79,5.5v12.95h-2.93v-3.39c-0.78,1.1-1.83,1.99-3.08,2.7
			c-1.48,0.82-3.16,1.25-5.03,1.25c-2.03,0-3.63-0.5-4.84-1.52c-1.25-1.06-1.87-2.41-1.87-4.05c0-2.3,0.9-4.01,2.77-5.19
			c1.64-1.1,3.98-1.68,7.02-1.72l4.84-0.08v-1.06c0-3.39-1.75-5.07-5.26-5.07c-1.48,0-2.69,0.27-3.63,0.9
			c-1.06,0.62-1.72,1.6-2.03,2.89l-3.08-0.23c0.43-2.1,1.48-3.7,3.12-4.72c1.48-0.94,3.39-1.41,5.82-1.41
			C781.64,677.69,783.74,678.43,785.15,679.95z M779.17,688.81c-4.53,0.08-6.79,1.56-6.79,4.49c0,0.94,0.35,1.68,1.13,2.3
			c0.78,0.58,1.79,0.9,3.04,0.9c1.91,0,3.59-0.62,5.07-1.87c1.44-1.21,2.18-2.62,2.18-4.18v-1.72L779.17,688.81z"/>
		<path class="st0" d="M808.82,681.71v-3.47h3.12v18.77c0,6.44-3.08,9.68-9.21,9.68c-2.73,0-4.84-0.54-6.24-1.64
			c-1.44-1.1-2.34-2.73-2.7-4.92h3.12c0.23,1.37,0.82,2.38,1.72,3.01c0.9,0.66,2.26,1.02,4.1,1.02c4.05,0,6.09-2.26,6.09-6.71v-3.55
			c-1.48,2.7-3.74,4.05-6.79,4.05c-2.81,0-5.03-0.98-6.67-2.89c-1.64-1.87-2.41-4.26-2.41-7.17c0-2.97,0.78-5.34,2.41-7.21
			c1.64-1.99,3.86-2.97,6.67-2.97C805.08,677.69,807.34,679.02,808.82,681.71z M797.78,682.45c-1.1,1.33-1.64,3.16-1.64,5.42
			c0,2.1,0.47,3.86,1.44,5.19c1.1,1.48,2.7,2.26,4.88,2.26c2.03,0,3.59-0.7,4.76-2.1c1.1-1.37,1.64-3.16,1.64-5.34
			c0-2.26-0.54-4.1-1.64-5.42c-1.17-1.48-2.73-2.18-4.72-2.18C800.48,680.27,798.91,680.97,797.78,682.45z"/>
		<path class="st0" d="M833.92,679.95c1.17,1.33,1.79,3.16,1.79,5.5v12.95h-2.93v-3.39c-0.78,1.1-1.83,1.99-3.08,2.7
			c-1.48,0.82-3.16,1.25-5.03,1.25c-2.03,0-3.63-0.5-4.84-1.52c-1.25-1.06-1.87-2.41-1.87-4.05c0-2.3,0.9-4.01,2.77-5.19
			c1.64-1.1,3.98-1.68,7.02-1.72l4.84-0.08v-1.06c0-3.39-1.75-5.07-5.26-5.07c-1.48,0-2.69,0.27-3.63,0.9
			c-1.06,0.62-1.72,1.6-2.03,2.89l-3.08-0.23c0.43-2.1,1.48-3.7,3.12-4.72c1.48-0.94,3.39-1.41,5.82-1.41
			C830.4,677.69,832.51,678.43,833.92,679.95z M827.94,688.81c-4.53,0.08-6.79,1.56-6.79,4.49c0,0.94,0.35,1.68,1.13,2.3
			c0.78,0.58,1.79,0.9,3.04,0.9c1.91,0,3.59-0.62,5.07-1.87c1.44-1.21,2.18-2.62,2.18-4.18v-1.72L827.94,688.81z"/>
		<path class="st0" d="M846.74,671.29c0.47,0.39,0.7,0.94,0.7,1.64c0,0.66-0.23,1.21-0.7,1.68c-0.46,0.43-1.02,0.66-1.68,0.66
			s-1.21-0.23-1.68-0.66c-0.47-0.47-0.66-1.02-0.66-1.68c0-0.7,0.19-1.25,0.66-1.64c0.46-0.47,1.02-0.66,1.68-0.66
			S846.28,670.83,846.74,671.29z M846.63,678.24v20.17h-3.12v-20.17H846.63z"/>
		<path class="st0" d="M871.41,686v12.41h-3.12v-12.17c0-3.94-1.79-5.89-5.3-5.89c-1.41,0-2.62,0.5-3.63,1.52
			c-1.09,1.1-1.68,2.54-1.79,4.37v12.17h-3.12v-20.17h3.12v2.97c0.7-1.13,1.6-1.99,2.69-2.58c1.1-0.62,2.3-0.94,3.63-0.94
			C868.87,677.69,871.41,680.47,871.41,686z"/>
		<path class="st0" d="M896.84,670v28.4h-3.08V670H896.84z"/>
		<path class="st0" d="M919.43,679.95c1.17,1.33,1.79,3.16,1.79,5.5v12.95h-2.93v-3.39c-0.78,1.1-1.83,1.99-3.08,2.7
			c-1.48,0.82-3.16,1.25-5.03,1.25c-2.03,0-3.63-0.5-4.84-1.52c-1.25-1.06-1.87-2.41-1.87-4.05c0-2.3,0.9-4.01,2.77-5.19
			c1.64-1.1,3.98-1.68,7.02-1.72l4.84-0.08v-1.06c0-3.39-1.75-5.07-5.26-5.07c-1.48,0-2.69,0.27-3.63,0.9
			c-1.06,0.62-1.72,1.6-2.03,2.89l-3.08-0.23c0.43-2.1,1.48-3.7,3.12-4.72c1.48-0.94,3.39-1.41,5.82-1.41
			C915.92,677.69,918.03,678.43,919.43,679.95z M913.46,688.81c-4.53,0.08-6.79,1.56-6.79,4.49c0,0.94,0.35,1.68,1.13,2.3
			c0.78,0.58,1.79,0.9,3.04,0.9c1.91,0,3.59-0.62,5.07-1.87c1.44-1.21,2.18-2.62,2.18-4.18v-1.72L913.46,688.81z"/>
		<path class="st0" d="M933.41,678.24h4.99v2.62h-4.99v12.84c0,0.74,0.12,1.29,0.43,1.6c0.27,0.31,0.78,0.5,1.48,0.5h2.58v2.62
			h-3.04c-1.64,0-2.85-0.43-3.55-1.29c-0.66-0.78-0.98-1.91-0.98-3.43v-12.84h-4.05v-2.62h4.05v-5.23l3.08-1.29L933.41,678.24
			L933.41,678.24z"/>
		<path class="st0" d="M959.47,680.97c1.48,1.95,2.26,4.72,2.34,8.23h-15.92c0.16,2.26,0.74,4.01,1.83,5.26
			c1.09,1.25,2.62,1.87,4.53,1.87c1.64,0,3.01-0.43,4.01-1.25c0.86-0.7,1.52-1.75,2.03-3.16h3.12c-0.47,1.95-1.37,3.51-2.73,4.76
			c-1.68,1.48-3.82,2.26-6.44,2.26c-2.89,0-5.23-0.98-6.94-2.85c-1.79-1.95-2.66-4.53-2.66-7.8c0-2.97,0.82-5.46,2.54-7.46
			c1.72-2.1,4.01-3.16,6.94-3.16C955.37,677.69,957.83,678.79,959.47,680.97z M947.88,682.07c-1.1,1.17-1.72,2.73-1.91,4.72h12.6
			c-0.39-4.33-2.54-6.48-6.36-6.48C950.41,680.31,948.97,680.89,947.88,682.07z"/>
		<path class="st0" d="M979.05,678.16v3.12c-1.02-0.31-2.03-0.43-3.01-0.43c-1.56,0-2.89,0.66-3.94,2.07c-1.1,1.33-1.6,2.93-1.6,4.8
			v10.69h-3.08v-20.17h3.08v3.51c0.54-1.17,1.25-2.1,2.1-2.77c1.06-0.86,2.26-1.29,3.66-1.29
			C977.38,677.69,978.31,677.85,979.05,678.16z"/>
		<path class="st0" d="M988.02,694.46c0.46,0.47,0.7,1.02,0.7,1.72c0,0.66-0.23,1.21-0.7,1.68c-0.47,0.47-1.06,0.7-1.68,0.7
			c-0.7,0-1.25-0.23-1.68-0.7c-0.47-0.47-0.7-1.02-0.7-1.68c0-0.7,0.23-1.25,0.7-1.72c0.43-0.47,0.98-0.7,1.68-0.7
			C986.98,693.77,987.56,694,988.02,694.46z"/>
		<path class="st0" d="M1000.28,694.46c0.46,0.47,0.7,1.02,0.7,1.72c0,0.66-0.23,1.21-0.7,1.68c-0.47,0.47-1.06,0.7-1.68,0.7
			c-0.7,0-1.25-0.23-1.68-0.7c-0.47-0.47-0.7-1.02-0.7-1.68c0-0.7,0.23-1.25,0.7-1.72c0.43-0.47,0.98-0.7,1.68-0.7
			C999.22,693.77,999.81,694,1000.28,694.46z"/>
		<path class="st0" d="M1012.53,694.46c0.46,0.47,0.7,1.02,0.7,1.72c0,0.66-0.23,1.21-0.7,1.68c-0.47,0.47-1.06,0.7-1.68,0.7
			c-0.7,0-1.25-0.23-1.68-0.7c-0.47-0.47-0.7-1.02-0.7-1.68c0-0.7,0.23-1.25,0.7-1.72c0.43-0.47,0.98-0.7,1.68-0.7
			C1011.48,693.77,1012.06,694,1012.53,694.46z"/>
	</g>
	<g>
		<g>
			
				<linearGradient id="SVGID_1_" gradientUnits="userSpaceOnUse" x1="-229.05" y1="1763.3839" x2="-260.1849" y2="1790.5353" gradientTransform="matrix(0.7071 -0.7071 0.7071 0.7071 -593.5517 207.7469)">
				<stop  offset="0" style="stop-color:#88FFF6"/>
				<stop  offset="0.0285" style="stop-color:#87FDF4;stop-opacity:0.9968"/>
				<stop  offset="0.2198" style="stop-color:#84F7EE;stop-opacity:0.9509"/>
				<stop  offset="0.4802" style="stop-color:#7DE5DD;stop-opacity:0.8883"/>
				<stop  offset="0.485" style="stop-color:#7DE5DD;stop-opacity:0.8872"/>
				<stop  offset="0.5329" style="stop-color:#77DBD3;stop-opacity:0.8047"/>
				<stop  offset="0.6157" style="stop-color:#68BEB8;stop-opacity:0.662"/>
				<stop  offset="0.7236" style="stop-color:#4F918C;stop-opacity:0.4761"/>
				<stop  offset="0.8524" style="stop-color:#2C514E;stop-opacity:0.2543"/>
				<stop  offset="0.9974" style="stop-color:#010201;stop-opacity:4.487395e-03"/>
				<stop  offset="1" style="stop-color:#000000;stop-opacity:0"/>
			</linearGradient>
			<path class="st1" d="M514.75,1617.99l-11.34,11.34c-7.05-6.03-17.71-5.69-24.38,0.98c-6.67,6.67-6.99,17.32-0.97,24.38
				l-5.39,5.39c-8.99-10.03-8.66-25.52,0.98-35.16c7.89-7.89,19.67-9.54,29.2-4.97c0.04,0.02,0.07,0.04,0.11,0.05
				C506.8,1621.85,511.56,1621.18,514.75,1617.99z"/>
			
				<linearGradient id="SVGID_00000158717943826368180870000008263708691366562948_" gradientUnits="userSpaceOnUse" x1="1536.457" y1="242.6331" x2="1505.322" y2="269.7843" gradientTransform="matrix(-0.7071 0.7071 -0.7071 -0.7071 1750.1113 754.5524)">
				<stop  offset="0" style="stop-color:#88FFF6"/>
				<stop  offset="0.0285" style="stop-color:#87FDF4;stop-opacity:0.9968"/>
				<stop  offset="0.2198" style="stop-color:#84F7EE;stop-opacity:0.9509"/>
				<stop  offset="0.4802" style="stop-color:#7DE5DD;stop-opacity:0.8883"/>
				<stop  offset="0.485" style="stop-color:#7DE5DD;stop-opacity:0.8872"/>
				<stop  offset="0.5329" style="stop-color:#77DBD3;stop-opacity:0.8047"/>
				<stop  offset="0.6157" style="stop-color:#68BEB8;stop-opacity:0.662"/>
				<stop  offset="0.7236" style="stop-color:#4F918C;stop-opacity:0.4761"/>
				<stop  offset="0.8524" style="stop-color:#2C514E;stop-opacity:0.2543"/>
				<stop  offset="0.9974" style="stop-color:#010201;stop-opacity:4.487395e-03"/>
				<stop  offset="1" style="stop-color:#000000;stop-opacity:0"/>
			</linearGradient>
			<path style="fill:url(#SVGID_00000158717943826368180870000008263708691366562948_);" d="M468.74,1668.04l11.34-11.34
				c7.05,6.03,17.71,5.7,24.38-0.98c6.67-6.67,6.99-17.32,0.97-24.38l5.39-5.39c8.99,10.03,8.66,25.52-0.98,35.16
				c-7.89,7.89-19.67,9.54-29.2,4.97c-0.04-0.02-0.07-0.04-0.11-0.05C476.68,1664.17,471.93,1664.85,468.74,1668.04z"/>
		</g>
		<path class="st0" d="M580.62,1668.23h-9.84l-21.42-20.91h-12.62v20.91h-7.63v-50.43h26.03c11.32,0.33,16.84,5.16,17.5,14.51
			c0,8.53-4.68,13.37-14.03,14.51L580.62,1668.23z M536.74,1623.95v17.22h16.23c7.87,0,11.72-2.87,11.56-8.61
			c0-5.74-3.85-8.61-11.56-8.61h-16.23V1623.95z"/>
		<path class="st0" d="M586.89,1668.23v-50.43h7.63v50.43H586.89z"/>
		<path class="st0" d="M636.4,1641.28v7.35h14.34c-2.51,8.5-10.45,14.36-19.63,13.99c-9.82-0.39-17.94-8.18-18.73-17.98
			c-0.94-11.55,8.2-21.24,19.55-21.24c7.7,0,14.72,4.53,17.89,11.55l6.69-3.03c-4.36-9.64-14.01-15.87-24.58-15.87
			c-15.05,0-27.26,12.4-26.96,27.51c0.28,14.38,12.04,26.13,26.42,26.41c13.51,0.26,24.97-9.32,27.15-22.57c0-0.01,0-0.01,0-0.02
			c0.18-1.14,0.26-2.28,0.27-3.43l0.03-2.66L636.4,1641.28L636.4,1641.28z"/>
	</g>
	<g>
		<g>
			
				<linearGradient id="SVGID_00000174574641428116489740000005779791716804136337_" gradientUnits="userSpaceOnUse" x1="794.3147" y1="837.847" x2="630.8472" y2="980.3996" gradientTransform="matrix(0.7071 -0.7071 0.7071 0.7071 -593.5517 207.7469)">
				<stop  offset="0" style="stop-color:#88FFF6"/>
				<stop  offset="0.0285" style="stop-color:#87FDF4;stop-opacity:0.9968"/>
				<stop  offset="0.2198" style="stop-color:#84F7EE;stop-opacity:0.9509"/>
				<stop  offset="0.4802" style="stop-color:#7DE5DD;stop-opacity:0.8883"/>
				<stop  offset="0.485" style="stop-color:#7DE5DD;stop-opacity:0.8872"/>
				<stop  offset="0.5329" style="stop-color:#77DBD3;stop-opacity:0.8047"/>
				<stop  offset="0.6157" style="stop-color:#68BEB8;stop-opacity:0.662"/>
				<stop  offset="0.7236" style="stop-color:#4F918C;stop-opacity:0.4761"/>
				<stop  offset="0.8524" style="stop-color:#2C514E;stop-opacity:0.2543"/>
				<stop  offset="0.9974" style="stop-color:#010201;stop-opacity:4.487395e-03"/>
				<stop  offset="1" style="stop-color:#000000;stop-opacity:0"/>
			</linearGradient>
			<path style="fill:url(#SVGID_00000174574641428116489740000005779791716804136337_);" d="M683.26,245.79l-59.53,59.53
				c-37.05-31.62-92.97-29.92-128,5.1c-35.01,35.01-36.72,90.94-5.09,127.99l-28.32,28.32c-47.17-52.69-45.47-133.97,5.15-184.58
				c41.4-41.4,103.29-50.08,153.31-26.07c0.19,0.09,0.38,0.19,0.57,0.28C641.56,266.06,666.52,262.54,683.26,245.79z"/>
			
				<linearGradient id="SVGID_00000057862665678834429820000012690495431929730492_" gradientUnits="userSpaceOnUse" x1="669.5919" y1="1007.2047" x2="506.1243" y2="1149.7572" gradientTransform="matrix(-0.7071 0.7071 -0.7071 -0.7071 1750.1113 754.5524)">
				<stop  offset="0" style="stop-color:#88FFF6"/>
				<stop  offset="0.0285" style="stop-color:#87FDF4;stop-opacity:0.9968"/>
				<stop  offset="0.2198" style="stop-color:#84F7EE;stop-opacity:0.9509"/>
				<stop  offset="0.4802" style="stop-color:#7DE5DD;stop-opacity:0.8883"/>
				<stop  offset="0.485" style="stop-color:#7DE5DD;stop-opacity:0.8872"/>
				<stop  offset="0.5329" style="stop-color:#77DBD3;stop-opacity:0.8047"/>
				<stop  offset="0.6157" style="stop-color:#68BEB8;stop-opacity:0.662"/>
				<stop  offset="0.7236" style="stop-color:#4F918C;stop-opacity:0.4761"/>
				<stop  offset="0.8524" style="stop-color:#2C514E;stop-opacity:0.2543"/>
				<stop  offset="0.9974" style="stop-color:#010201;stop-opacity:4.487395e-03"/>
				<stop  offset="1" style="stop-color:#000000;stop-opacity:0"/>
			</linearGradient>
			<path style="fill:url(#SVGID_00000057862665678834429820000012690495431929730492_);" d="M441.74,508.54l59.53-59.53
				c37.05,31.62,92.97,29.92,128-5.1c35.01-35.01,36.72-90.94,5.09-127.99l28.32-28.32c47.17,52.69,45.47,133.97-5.15,184.58
				c-41.4,41.4-103.29,50.08-153.31,26.07c-0.19-0.09-0.38-0.19-0.57-0.28C483.44,488.27,458.48,491.8,441.74,508.54z"/>
		</g>
		<g>
			<path class="st5" d="M603.13,336.54L603.13,336.54c-11.31-11.31-29.65-11.31-40.96,0l-20.48,20.48l40.96,40.96l20.48-20.48
				C614.44,366.19,614.44,347.85,603.13,336.54z"/>
			<path class="st6" d="M521.24,418.43L521.24,418.43c11.31,11.31,29.65,11.31,40.96,0l20.48-20.48l-40.96-40.96l-20.48,20.48
				C509.93,388.78,509.93,407.12,521.24,418.43z"/>
			<path class="st7" d="M603.13,336.54L603.13,336.54c-11.31-11.31-29.65-11.31-40.96,0l-20.48,20.48l40.96,40.96l20.48-20.48
				C614.44,366.19,614.44,347.85,603.13,336.54z"/>
			<g>
				<path class="st5" d="M598.77,333.41L598.77,333.41c-1.34-1.34-2.74-2.56-4.19-3.65c9.95,13.07,10.42,30.19,0.39,40.22
					l-20.17,20.17l7.84,7.84l20.17-20.17C613.97,366.66,612.15,346.79,598.77,333.41z"/>
			</g>
			<g>
				<path class="st8" d="M574.84,390.1l-20.82,20.82c-8.36,8.36-21.32,9.83-32.91,4.85c13.29,11.26,31.78,11.97,42.59,1.16
					l18.98-18.98L574.84,390.1z"/>
			</g>
			<line class="st9" x1="541.69" y1="357.02" x2="582.65" y2="397.98"/>
			<path class="st9" d="M521.24,418.43L521.24,418.43c-11.31-11.31-11.31-29.65,0-40.96l41.56-41.56
				c11.31-11.31,29.65-11.31,40.96,0l0,0c11.31,11.31,11.31,29.65,0,40.96l-41.56,41.56C550.89,429.74,532.56,429.74,521.24,418.43z
				"/>
			<path class="st7" d="M523.86,396.03c-0.01,0.15-0.03,0.3-0.04,0.46c-0.05,1.16-0.2,2.31,0.09,3.47c0.37,1.07,0.52,2.19,0.71,3.3
				c0.12,0.69-0.42,1.39-1.09,1.53c-0.74,0.16-1.11-0.36-1.28-0.91c-0.53-1.75-0.97-3.51-0.76-5.4c0.1-0.99-0.16-2.02,0.08-3.04
				c0.09-0.38,0.17-0.77,0.38-1.11c0.29-0.45,0.69-0.63,1.22-0.47c0.5,0.15,0.85,0.45,0.74,1.04
				C523.85,395.27,524.16,395.66,523.86,396.03z"/>
			<path class="st10" d="M527.48,388.04c0.04,0.36-0.12,0.55-0.27,0.72c-0.55,0.59-1.12,1.19-1.69,1.76
				c-0.49,0.49-0.9,0.13-1.31-0.16c-0.47-0.33-0.48-0.72-0.2-1.16c0.53-0.79,1.26-1.41,1.92-2.07c0.19-0.19,0.46-0.3,0.71-0.09
				C527,387.34,527.37,387.64,527.48,388.04z"/>
			<path class="st10" d="M528.88,410.55c-0.13,0.38-0.29,0.87-0.82,1.07c-0.46,0.17-0.8-0.12-1.11-0.41
				c-0.6-0.58-1.22-1.15-1.73-1.81c-0.41-0.52-0.37-0.98,0.11-1.45c0.46-0.44,0.9-0.47,1.36-0.03c0.65,0.63,1.32,1.27,1.99,1.89
				C528.88,410,528.94,410.2,528.88,410.55z"/>
		</g>
	</g>
</g>
</svg>
