<?xml version="1.0" encoding="utf-8"?>
<!-- Generator: Adobe Illustrator 27.5.0, SVG Export Plug-In . SVG Version: 6.00 Build 0)  -->
<svg version="1.1" id="图层_1" xmlns="http://www.w3.org/2000/svg" xmlns:xlink="http://www.w3.org/1999/xlink" x="0px" y="0px"
	 viewBox="0 0 1125 1888.68" style="enable-background:new 0 0 1125 1888.68;" xml:space="preserve">
<style type="text/css">
	.st0{fill:#88FFF6;}
	.st1{fill:url(#SVGID_1_);}
	.st2{fill:url(#SVGID_00000000918589247790037880000016597956700893004451_);}
	.st3{fill:url(#SVGID_00000115507327437117947070000004589735335329532854_);}
	.st4{fill:url(#SVGID_00000005964223179555630340000002136635393187221141_);}
	.st5{fill:#BAD0D1;}
	.st6{fill:#52D593;}
	.st7{fill:#FFFFFF;}
	.st8{fill:#1C8862;}
	.st9{fill:none;stroke:#174542;stroke-width:6;stroke-miterlimit:10;}
	.st10{fill:#FEFFFE;}
</style>
<rect x="-1066.56" width="3258.12" height="1888.68"/>
<g>
	<path class="st0" d="M159.4,666.44v2.75h-9.77v24.93h-3.14v-24.93h-9.77v-2.75H159.4z"/>
	<path class="st0" d="M167.5,665.89v11.48c0.7-1.28,1.63-2.25,2.79-2.91c1.09-0.62,2.29-0.93,3.64-0.93c2.33,0,4.15,0.66,5.39,2.06
		c1.24,1.36,1.86,3.33,1.86,5.89v12.64h-3.1v-12.17c0-1.86-0.47-3.3-1.32-4.3c-0.93-1.01-2.21-1.51-3.88-1.51
		c-1.55,0-2.83,0.62-3.84,1.86c-1.05,1.24-1.55,2.83-1.55,4.69v11.44h-3.1V665.9h3.11L167.5,665.89L167.5,665.89z"/>
	<path class="st0" d="M203.45,676.79c1.47,1.94,2.25,4.69,2.33,8.18h-15.82c0.15,2.25,0.74,3.99,1.82,5.23
		c1.09,1.24,2.6,1.86,4.5,1.86c1.63,0,2.99-0.43,3.99-1.24c0.85-0.7,1.51-1.74,2.02-3.14h3.1c-0.46,1.94-1.36,3.49-2.71,4.73
		c-1.67,1.47-3.8,2.25-6.4,2.25c-2.87,0-5.2-0.97-6.9-2.83c-1.78-1.94-2.64-4.5-2.64-7.75c0-2.95,0.81-5.43,2.52-7.41
		c1.71-2.09,3.99-3.14,6.9-3.14C199.38,673.53,201.82,674.62,203.45,676.79z M191.93,677.88c-1.09,1.16-1.71,2.71-1.9,4.69h12.52
		c-0.39-4.3-2.52-6.44-6.32-6.44C194.45,676.13,193.02,676.71,191.93,677.88z"/>
	<path class="st0" d="M242.61,676.75c1.51,1.94,2.29,4.38,2.29,7.41c0,2.95-0.78,5.39-2.25,7.33c-1.63,2.09-3.84,3.18-6.71,3.18
		s-5.08-1.4-6.63-4.19v11.32h-3.1v-27.72h2.91v3.3c1.43-2.56,3.64-3.84,6.67-3.84C238.66,673.53,240.94,674.58,242.61,676.75z
		 M230.71,678.46c-1.01,1.4-1.51,3.26-1.51,5.51v0.39c0,2.33,0.54,4.19,1.71,5.62c1.09,1.4,2.52,2.13,4.38,2.13
		c2.17,0,3.8-0.78,4.92-2.25c1.01-1.4,1.51-3.3,1.51-5.7c0-2.37-0.5-4.27-1.43-5.66c-1.12-1.63-2.75-2.4-4.89-2.4
		C233.38,676.09,231.79,676.87,230.71,678.46z"/>
	<path class="st0" d="M265.95,675.78c1.16,1.32,1.78,3.14,1.78,5.47v12.87h-2.91v-3.37c-0.78,1.09-1.82,1.98-3.06,2.68
		c-1.47,0.81-3.14,1.24-5,1.24c-2.02,0-3.61-0.5-4.81-1.51c-1.24-1.05-1.86-2.4-1.86-4.03c0-2.29,0.89-3.99,2.75-5.16
		c1.63-1.09,3.95-1.67,6.98-1.71l4.81-0.08v-1.05c0-3.37-1.74-5.04-5.23-5.04c-1.47,0-2.68,0.27-3.61,0.89
		c-1.05,0.62-1.71,1.59-2.02,2.87l-3.06-0.23c0.43-2.09,1.47-3.68,3.1-4.69c1.47-0.93,3.37-1.4,5.78-1.4
		C262.47,673.53,264.56,674.27,265.95,675.78z M260.02,684.58c-4.5,0.08-6.75,1.55-6.75,4.46c0,0.93,0.35,1.67,1.12,2.29
		c0.78,0.58,1.78,0.89,3.02,0.89c1.9,0,3.57-0.62,5.04-1.86c1.43-1.2,2.17-2.6,2.17-4.15v-1.71L260.02,684.58z"/>
	<path class="st0" d="M289.49,677.53v-3.45h3.1v18.65c0,6.4-3.06,9.62-9.15,9.62c-2.71,0-4.81-0.54-6.2-1.63
		c-1.43-1.09-2.33-2.71-2.68-4.89h3.1c0.23,1.36,0.81,2.37,1.71,2.99c0.89,0.66,2.25,1.01,4.07,1.01c4.03,0,6.05-2.25,6.05-6.67
		v-3.53c-1.47,2.68-3.72,4.03-6.75,4.03c-2.79,0-5-0.97-6.63-2.87c-1.63-1.86-2.4-4.23-2.4-7.13c0-2.95,0.78-5.31,2.4-7.17
		c1.63-1.98,3.84-2.95,6.63-2.95C285.77,673.53,288.02,674.85,289.49,677.53z M278.52,678.26c-1.09,1.32-1.63,3.14-1.63,5.39
		c0,2.09,0.47,3.84,1.43,5.16c1.09,1.47,2.68,2.25,4.85,2.25c2.02,0,3.57-0.7,4.73-2.09c1.09-1.36,1.63-3.14,1.63-5.31
		c0-2.25-0.54-4.07-1.63-5.39c-1.16-1.47-2.71-2.17-4.69-2.17C281.19,676.09,279.64,676.79,278.52,678.26z"/>
	<path class="st0" d="M314.89,676.79c1.47,1.94,2.25,4.69,2.33,8.18H301.4c0.15,2.25,0.74,3.99,1.82,5.23
		c1.09,1.24,2.6,1.86,4.5,1.86c1.63,0,2.99-0.43,3.99-1.24c0.85-0.7,1.51-1.74,2.02-3.14h3.1c-0.46,1.94-1.36,3.49-2.71,4.73
		c-1.67,1.47-3.8,2.25-6.4,2.25c-2.87,0-5.2-0.97-6.9-2.83c-1.78-1.94-2.64-4.5-2.64-7.75c0-2.95,0.81-5.43,2.52-7.41
		c1.71-2.09,3.99-3.14,6.9-3.14C310.82,673.53,313.26,674.62,314.89,676.79z M303.38,677.88c-1.09,1.16-1.71,2.71-1.9,4.69H314
		c-0.39-4.3-2.52-6.44-6.32-6.44C305.9,676.13,304.46,676.71,303.38,677.88z"/>
	<path class="st0" d="M341.88,667.17c0.47,0.39,0.7,0.93,0.7,1.63c0,0.66-0.23,1.2-0.7,1.67c-0.46,0.43-1.01,0.66-1.67,0.66
		s-1.2-0.23-1.67-0.66c-0.47-0.47-0.66-1.01-0.66-1.67c0-0.7,0.19-1.24,0.66-1.63c0.46-0.47,1.01-0.66,1.67-0.66
		S341.42,666.71,341.88,667.17z M341.76,674.08v20.05h-3.1v-20.05H341.76z"/>
	<path class="st0" d="M364.83,679.77h-3.02c-0.27-1.24-0.78-2.17-1.55-2.71c-0.85-0.62-2.09-0.93-3.68-0.93
		c-1.4,0-2.48,0.23-3.26,0.78c-0.85,0.5-1.28,1.2-1.28,2.09c0,0.85,0.54,1.59,1.71,2.17c0.74,0.35,2.13,0.78,4.15,1.32
		c2.4,0.58,4.11,1.2,5.16,1.86c1.59,1.01,2.4,2.36,2.4,4.11c0,4.11-2.83,6.2-8.49,6.2c-5.27,0-8.14-2.33-8.61-6.94h3.02
		c0.23,1.59,0.81,2.71,1.67,3.41c0.85,0.62,2.13,0.93,3.84,0.93c3.57,0,5.39-1.16,5.39-3.41c0-1.12-0.66-1.98-1.9-2.6
		c-0.66-0.31-2.09-0.74-4.26-1.28c-2.37-0.58-4.03-1.16-4.96-1.78c-1.55-0.93-2.29-2.21-2.29-3.92c0-1.71,0.74-3.02,2.25-4.03
		c1.4-1.01,3.26-1.51,5.51-1.51C361.58,673.53,364.29,675.59,364.83,679.77z"/>
	<path class="st0" d="M388.99,674.08v12.25c0,1.9,0.39,3.33,1.2,4.27c0.81,0.93,2.13,1.43,3.95,1.43c1.32,0,2.52-0.54,3.57-1.55
		c1.09-1.09,1.75-2.48,1.98-4.19v-12.21h3.1v20.05h-3.1v-3.1c-1.63,2.4-3.8,3.65-6.51,3.65c-4.89,0-7.29-2.75-7.29-8.18v-12.41h3.1
		L388.99,674.08L388.99,674.08z"/>
	<path class="st0" d="M425.95,676.75c1.51,1.94,2.29,4.38,2.29,7.41c0,2.95-0.78,5.39-2.25,7.33c-1.63,2.09-3.84,3.18-6.71,3.18
		s-5.08-1.4-6.63-4.19v11.32h-3.1v-27.72h2.91v3.3c1.43-2.56,3.64-3.84,6.67-3.84C421.99,673.53,424.28,674.58,425.95,676.75z
		 M414.04,678.46c-1.01,1.4-1.51,3.26-1.51,5.51v0.39c0,2.33,0.54,4.19,1.71,5.62c1.08,1.4,2.52,2.13,4.38,2.13
		c2.17,0,3.8-0.78,4.92-2.25c1.01-1.4,1.51-3.3,1.51-5.7c0-2.37-0.5-4.27-1.43-5.66c-1.12-1.63-2.75-2.4-4.89-2.4
		C416.72,676.09,415.13,676.87,414.04,678.46z"/>
	<path class="st0" d="M452.12,665.89v28.23h-2.91v-3.3c-1.4,2.56-3.64,3.84-6.67,3.84c-2.95,0-5.23-1.09-6.86-3.18
		c-1.51-1.94-2.25-4.42-2.25-7.44c0-2.95,0.74-5.35,2.25-7.29c1.63-2.17,3.84-3.22,6.71-3.22s5.08,1.4,6.63,4.23V665.9h3.1V665.89z
		 M438.09,678.42c-1.01,1.36-1.47,3.22-1.47,5.62s0.47,4.3,1.43,5.7c1.09,1.55,2.71,2.37,4.89,2.37c2.02,0,3.57-0.78,4.69-2.33
		c0.97-1.4,1.47-3.22,1.47-5.47v-0.39c0-2.33-0.58-4.23-1.67-5.66c-1.12-1.47-2.6-2.17-4.38-2.17
		C440.84,676.09,439.17,676.87,438.09,678.42z"/>
	<path class="st0" d="M473.95,675.78c1.16,1.32,1.78,3.14,1.78,5.47v12.87h-2.91v-3.37c-0.78,1.09-1.82,1.98-3.06,2.68
		c-1.47,0.81-3.14,1.24-5,1.24c-2.02,0-3.61-0.5-4.81-1.51c-1.24-1.05-1.86-2.4-1.86-4.03c0-2.29,0.89-3.99,2.75-5.16
		c1.63-1.09,3.96-1.67,6.98-1.71l4.81-0.08v-1.05c0-3.37-1.74-5.04-5.23-5.04c-1.47,0-2.67,0.27-3.61,0.89
		c-1.05,0.62-1.71,1.59-2.02,2.87l-3.06-0.23c0.43-2.09,1.47-3.68,3.1-4.69c1.47-0.93,3.37-1.4,5.78-1.4
		C470.46,673.53,472.56,674.27,473.95,675.78z M468.02,684.58c-4.5,0.08-6.75,1.55-6.75,4.46c0,0.93,0.35,1.67,1.12,2.29
		c0.78,0.58,1.78,0.89,3.02,0.89c1.9,0,3.57-0.62,5.04-1.86c1.43-1.2,2.17-2.6,2.17-4.15v-1.71L468.02,684.58z"/>
	<path class="st0" d="M487.84,674.08h4.96v2.6h-4.96v12.76c0,0.74,0.12,1.28,0.43,1.59c0.27,0.31,0.78,0.5,1.47,0.5h2.56v2.6h-3.02
		c-1.63,0-2.83-0.43-3.53-1.28c-0.66-0.78-0.97-1.9-0.97-3.41v-12.76h-4.03v-2.6h4.03v-5.2l3.06-1.28V674.08z"/>
	<path class="st0" d="M502.42,667.17c0.47,0.39,0.7,0.93,0.7,1.63c0,0.66-0.23,1.2-0.7,1.67c-0.46,0.43-1.01,0.66-1.67,0.66
		s-1.2-0.23-1.67-0.66c-0.47-0.47-0.66-1.01-0.66-1.67c0-0.7,0.19-1.24,0.66-1.63c0.46-0.47,1.01-0.66,1.67-0.66
		S501.95,666.71,502.42,667.17z M502.3,674.08v20.05h-3.1v-20.05H502.3z"/>
	<path class="st0" d="M526.92,681.79v12.33h-3.1v-12.1c0-3.92-1.78-5.85-5.27-5.85c-1.4,0-2.6,0.5-3.61,1.51
		c-1.09,1.09-1.67,2.52-1.78,4.34v12.1h-3.1v-20.05h3.1v2.95c0.7-1.12,1.59-1.98,2.67-2.56c1.09-0.62,2.29-0.93,3.61-0.93
		C524.4,673.53,526.92,676.29,526.92,681.79z"/>
	<path class="st0" d="M548.68,677.53v-3.45h3.1v18.65c0,6.4-3.06,9.62-9.15,9.62c-2.71,0-4.81-0.54-6.2-1.63
		c-1.43-1.09-2.33-2.71-2.68-4.89h3.1c0.23,1.36,0.81,2.37,1.71,2.99c0.89,0.66,2.25,1.01,4.07,1.01c4.03,0,6.05-2.25,6.05-6.67
		v-3.53c-1.47,2.68-3.72,4.03-6.75,4.03c-2.79,0-5-0.97-6.63-2.87c-1.63-1.86-2.4-4.23-2.4-7.13c0-2.95,0.78-5.31,2.4-7.17
		c1.63-1.98,3.84-2.95,6.63-2.95C544.95,673.53,547.2,674.85,548.68,677.53z M537.7,678.26c-1.09,1.32-1.63,3.14-1.63,5.39
		c0,2.09,0.47,3.84,1.43,5.16c1.09,1.47,2.68,2.25,4.85,2.25c2.02,0,3.57-0.7,4.73-2.09c1.09-1.36,1.63-3.14,1.63-5.31
		c0-2.25-0.54-4.07-1.63-5.39c-1.16-1.47-2.71-2.17-4.69-2.17C540.38,676.09,538.83,676.79,537.7,678.26z"/>
	<path class="st0" d="M563.37,690.59c0.5,0.7,0.78,1.59,0.78,2.71c0,1.71-0.5,3.22-1.51,4.54c-1.01,1.24-2.37,2.09-4.03,2.52v-1.9
		c1.01-0.35,1.86-0.93,2.48-1.71c0.54-0.81,0.85-1.67,0.85-2.6c-0.19,0.08-0.46,0.16-0.85,0.16c-0.66,0-1.2-0.23-1.67-0.7
		c-0.47-0.47-0.7-1.05-0.7-1.71c0-0.74,0.23-1.32,0.74-1.74c0.43-0.47,1.01-0.66,1.78-0.66
		C562.09,689.51,562.83,689.86,563.37,690.59z"/>
	<path class="st0" d="M601.95,676.75c1.51,1.94,2.29,4.38,2.29,7.41c0,2.95-0.78,5.39-2.25,7.33c-1.63,2.09-3.84,3.18-6.71,3.18
		s-5.08-1.4-6.63-4.19v11.32h-3.1v-27.72h2.91v3.3c1.43-2.56,3.64-3.84,6.67-3.84C598,673.53,600.29,674.58,601.95,676.75z
		 M590.05,678.46c-1.01,1.4-1.51,3.26-1.51,5.51v0.39c0,2.33,0.54,4.19,1.71,5.62c1.08,1.4,2.52,2.13,4.38,2.13
		c2.17,0,3.8-0.78,4.92-2.25c1.01-1.4,1.51-3.3,1.51-5.7c0-2.37-0.5-4.27-1.43-5.66c-1.12-1.63-2.75-2.4-4.89-2.4
		C592.73,676.09,591.14,676.87,590.05,678.46z"/>
	<path class="st0" d="M613.9,665.89v28.23h-3.06v-28.23H613.9z"/>
	<path class="st0" d="M636.81,676.79c1.47,1.94,2.25,4.69,2.33,8.18h-15.82c0.16,2.25,0.74,3.99,1.82,5.23s2.6,1.86,4.5,1.86
		c1.63,0,2.99-0.43,3.99-1.24c0.85-0.7,1.51-1.74,2.02-3.14h3.1c-0.47,1.94-1.36,3.49-2.71,4.73c-1.67,1.47-3.8,2.25-6.4,2.25
		c-2.87,0-5.2-0.97-6.9-2.83c-1.78-1.94-2.64-4.5-2.64-7.75c0-2.95,0.81-5.43,2.52-7.41c1.71-2.09,3.99-3.14,6.9-3.14
		C632.74,673.53,635.19,674.62,636.81,676.79z M625.3,677.88c-1.09,1.16-1.71,2.71-1.9,4.69h12.52c-0.39-4.3-2.52-6.44-6.32-6.44
		C627.82,676.13,626.38,676.71,625.3,677.88z"/>
	<path class="st0" d="M659.81,675.78c1.16,1.32,1.78,3.14,1.78,5.47v12.87h-2.91v-3.37c-0.78,1.09-1.82,1.98-3.06,2.68
		c-1.47,0.81-3.14,1.24-5,1.24c-2.02,0-3.61-0.5-4.81-1.51c-1.24-1.05-1.86-2.4-1.86-4.03c0-2.29,0.89-3.99,2.75-5.16
		c1.63-1.09,3.96-1.67,6.98-1.71l4.81-0.08v-1.05c0-3.37-1.74-5.04-5.23-5.04c-1.47,0-2.67,0.27-3.61,0.89
		c-1.05,0.62-1.71,1.59-2.02,2.87l-3.06-0.23c0.43-2.09,1.47-3.68,3.1-4.69c1.47-0.93,3.37-1.4,5.78-1.4
		C656.32,673.53,658.41,674.27,659.81,675.78z M653.88,684.58c-4.5,0.08-6.75,1.55-6.75,4.46c0,0.93,0.35,1.67,1.12,2.29
		c0.78,0.58,1.78,0.89,3.02,0.89c1.9,0,3.57-0.62,5.04-1.86c1.43-1.2,2.17-2.6,2.17-4.15v-1.71L653.88,684.58z"/>
	<path class="st0" d="M683.66,679.77h-3.02c-0.27-1.24-0.78-2.17-1.55-2.71c-0.85-0.62-2.09-0.93-3.68-0.93
		c-1.4,0-2.48,0.23-3.26,0.78c-0.85,0.5-1.28,1.2-1.28,2.09c0,0.85,0.54,1.59,1.71,2.17c0.74,0.35,2.13,0.78,4.15,1.32
		c2.4,0.58,4.11,1.2,5.16,1.86c1.59,1.01,2.4,2.36,2.4,4.11c0,4.11-2.83,6.2-8.49,6.2c-5.27,0-8.14-2.33-8.61-6.94h3.02
		c0.23,1.59,0.81,2.71,1.67,3.41c0.85,0.62,2.13,0.93,3.84,0.93c3.57,0,5.39-1.16,5.39-3.41c0-1.12-0.66-1.98-1.9-2.6
		c-0.66-0.31-2.09-0.74-4.26-1.28c-2.37-0.58-4.03-1.16-4.96-1.78c-1.55-0.93-2.29-2.21-2.29-3.92c0-1.71,0.74-3.02,2.25-4.03
		c1.4-1.01,3.26-1.51,5.51-1.51C680.4,673.53,683.11,675.59,683.66,679.77z"/>
	<path class="st0" d="M705.41,676.79c1.47,1.94,2.25,4.69,2.33,8.18h-15.82c0.16,2.25,0.74,3.99,1.82,5.23s2.6,1.86,4.5,1.86
		c1.63,0,2.99-0.43,3.99-1.24c0.85-0.7,1.51-1.74,2.02-3.14h3.1c-0.47,1.94-1.36,3.49-2.71,4.73c-1.67,1.47-3.8,2.25-6.4,2.25
		c-2.87,0-5.2-0.97-6.9-2.83c-1.78-1.94-2.64-4.5-2.64-7.75c0-2.95,0.81-5.43,2.52-7.41c1.71-2.09,3.99-3.14,6.9-3.14
		C701.34,673.53,703.78,674.62,705.41,676.79z M693.89,677.88c-1.09,1.16-1.71,2.71-1.9,4.69h12.52c-0.39-4.3-2.52-6.44-6.32-6.44
		C696.41,676.13,694.98,676.71,693.89,677.88z"/>
	<path class="st0" d="M733.52,674.08h4.96v2.6h-4.96v12.76c0,0.74,0.12,1.28,0.43,1.59c0.27,0.31,0.78,0.5,1.47,0.5h2.56v2.6h-3.02
		c-1.63,0-2.83-0.43-3.53-1.28c-0.66-0.78-0.97-1.9-0.97-3.41v-12.76h-4.03v-2.6h4.03v-5.2l3.06-1.28L733.52,674.08L733.52,674.08z"
		/>
	<path class="st0" d="M755.43,674v3.1c-1.01-0.31-2.02-0.43-2.99-0.43c-1.55,0-2.87,0.66-3.92,2.06c-1.09,1.32-1.59,2.91-1.59,4.77
		v10.62h-3.06v-20.05h3.06v3.49c0.54-1.16,1.24-2.09,2.09-2.75c1.05-0.85,2.25-1.28,3.64-1.28
		C753.76,673.53,754.7,673.69,755.43,674z"/>
	<path class="st0" d="M761.13,674.08l6.13,15.82l5.93-15.82h3.41l-10.97,27.72h-3.37l3.45-8.14l-7.95-19.58L761.13,674.08
		L761.13,674.08z"/>
	<path class="st0" d="M811.08,675.78c1.16,1.32,1.78,3.14,1.78,5.47v12.87h-2.91v-3.37c-0.78,1.09-1.82,1.98-3.06,2.68
		c-1.47,0.81-3.14,1.24-5,1.24c-2.02,0-3.61-0.5-4.81-1.51c-1.24-1.05-1.86-2.4-1.86-4.03c0-2.29,0.89-3.99,2.75-5.16
		c1.63-1.09,3.96-1.67,6.98-1.71l4.81-0.08v-1.05c0-3.37-1.74-5.04-5.23-5.04c-1.47,0-2.67,0.27-3.61,0.89
		c-1.05,0.62-1.71,1.59-2.02,2.87l-3.06-0.23c0.43-2.09,1.47-3.68,3.1-4.69c1.47-0.93,3.37-1.4,5.78-1.4
		C807.59,673.53,809.68,674.27,811.08,675.78z M805.14,684.58c-4.5,0.08-6.75,1.55-6.75,4.46c0,0.93,0.35,1.67,1.12,2.29
		c0.78,0.58,1.78,0.89,3.02,0.89c1.9,0,3.57-0.62,5.04-1.86c1.43-1.2,2.17-2.6,2.17-4.15v-1.71L805.14,684.58z"/>
	<path class="st0" d="M834.61,677.53v-3.45h3.1v18.65c0,6.4-3.06,9.62-9.15,9.62c-2.71,0-4.81-0.54-6.2-1.63
		c-1.43-1.09-2.33-2.71-2.68-4.89h3.1c0.23,1.36,0.81,2.37,1.71,2.99c0.89,0.66,2.25,1.01,4.07,1.01c4.03,0,6.05-2.25,6.05-6.67
		v-3.53c-1.47,2.68-3.72,4.03-6.75,4.03c-2.79,0-5-0.97-6.63-2.87c-1.63-1.86-2.4-4.23-2.4-7.13c0-2.95,0.78-5.31,2.4-7.17
		c1.63-1.98,3.84-2.95,6.63-2.95C830.89,673.53,833.14,674.85,834.61,677.53z M823.64,678.26c-1.09,1.32-1.63,3.14-1.63,5.39
		c0,2.09,0.47,3.84,1.43,5.16c1.09,1.47,2.68,2.25,4.85,2.25c2.02,0,3.57-0.7,4.73-2.09c1.09-1.36,1.63-3.14,1.63-5.31
		c0-2.25-0.54-4.07-1.63-5.39c-1.16-1.47-2.71-2.17-4.69-2.17C826.32,676.09,824.76,676.79,823.64,678.26z"/>
	<path class="st0" d="M859.55,675.78c1.16,1.32,1.78,3.14,1.78,5.47v12.87h-2.91v-3.37c-0.78,1.09-1.82,1.98-3.06,2.68
		c-1.47,0.81-3.14,1.24-5,1.24c-2.02,0-3.61-0.5-4.81-1.51c-1.24-1.05-1.86-2.4-1.86-4.03c0-2.29,0.89-3.99,2.75-5.16
		c1.63-1.09,3.96-1.67,6.98-1.71l4.81-0.08v-1.05c0-3.37-1.74-5.04-5.23-5.04c-1.47,0-2.67,0.27-3.61,0.89
		c-1.05,0.62-1.71,1.59-2.02,2.87l-3.06-0.23c0.43-2.09,1.47-3.68,3.1-4.69c1.47-0.93,3.37-1.4,5.78-1.4
		C856.06,673.53,858.15,674.27,859.55,675.78z M853.61,684.58c-4.5,0.08-6.75,1.55-6.75,4.46c0,0.93,0.35,1.67,1.12,2.29
		c0.78,0.58,1.78,0.89,3.02,0.89c1.9,0,3.57-0.62,5.04-1.86c1.43-1.2,2.17-2.6,2.17-4.15v-1.71L853.61,684.58z"/>
	<path class="st0" d="M872.3,667.17c0.47,0.39,0.7,0.93,0.7,1.63c0,0.66-0.23,1.2-0.7,1.67c-0.46,0.43-1.01,0.66-1.67,0.66
		s-1.2-0.23-1.67-0.66c-0.47-0.47-0.66-1.01-0.66-1.67c0-0.7,0.19-1.24,0.66-1.63c0.46-0.47,1.01-0.66,1.67-0.66
		S871.84,666.71,872.3,667.17z M872.19,674.08v20.05h-3.1v-20.05H872.19z"/>
	<path class="st0" d="M896.81,681.79v12.33h-3.1v-12.1c0-3.92-1.78-5.85-5.27-5.85c-1.4,0-2.6,0.5-3.61,1.51
		c-1.08,1.09-1.67,2.52-1.78,4.34v12.1h-3.1v-20.05h3.1v2.95c0.7-1.12,1.59-1.98,2.67-2.56c1.09-0.62,2.29-0.93,3.61-0.93
		C894.29,673.53,896.81,676.29,896.81,681.79z"/>
	<path class="st0" d="M922.09,665.89v28.23h-3.06v-28.23H922.09z"/>
	<path class="st0" d="M944.54,675.78c1.16,1.32,1.78,3.14,1.78,5.47v12.87h-2.91v-3.37c-0.78,1.09-1.82,1.98-3.06,2.68
		c-1.47,0.81-3.14,1.24-5,1.24c-2.02,0-3.61-0.5-4.81-1.51c-1.24-1.05-1.86-2.4-1.86-4.03c0-2.29,0.89-3.99,2.75-5.16
		c1.63-1.09,3.96-1.67,6.98-1.71l4.81-0.08v-1.05c0-3.37-1.74-5.04-5.23-5.04c-1.47,0-2.67,0.27-3.61,0.89
		c-1.05,0.62-1.71,1.59-2.02,2.87l-3.06-0.23c0.43-2.09,1.47-3.68,3.1-4.69c1.47-0.93,3.37-1.4,5.78-1.4
		C941.05,673.53,943.15,674.27,944.54,675.78z M938.61,684.58c-4.5,0.08-6.75,1.55-6.75,4.46c0,0.93,0.35,1.67,1.12,2.29
		c0.78,0.58,1.78,0.89,3.02,0.89c1.9,0,3.57-0.62,5.04-1.86c1.43-1.2,2.17-2.6,2.17-4.15v-1.71L938.61,684.58z"/>
	<path class="st0" d="M958.43,674.08h4.96v2.6h-4.96v12.76c0,0.74,0.12,1.28,0.43,1.59c0.27,0.31,0.78,0.5,1.47,0.5h2.56v2.6h-3.02
		c-1.63,0-2.83-0.43-3.53-1.28c-0.66-0.78-0.97-1.9-0.97-3.41v-12.76h-4.03v-2.6h4.03v-5.2l3.06-1.28L958.43,674.08L958.43,674.08z"
		/>
	<path class="st0" d="M984.33,676.79c1.47,1.94,2.25,4.69,2.33,8.18h-15.82c0.16,2.25,0.74,3.99,1.82,5.23s2.6,1.86,4.5,1.86
		c1.63,0,2.99-0.43,3.99-1.24c0.85-0.7,1.51-1.74,2.02-3.14h3.1c-0.47,1.94-1.36,3.49-2.71,4.73c-1.67,1.47-3.8,2.25-6.4,2.25
		c-2.87,0-5.2-0.97-6.9-2.83c-1.78-1.94-2.64-4.5-2.64-7.75c0-2.95,0.81-5.43,2.52-7.41c1.71-2.09,3.99-3.14,6.9-3.14
		C980.26,673.53,982.7,674.62,984.33,676.79z M972.81,677.88c-1.09,1.16-1.71,2.71-1.9,4.69h12.52c-0.39-4.3-2.52-6.44-6.32-6.44
		C975.33,676.13,973.9,676.71,972.81,677.88z"/>
	<path class="st0" d="M1003.79,674v3.1c-1.01-0.31-2.02-0.43-2.99-0.43c-1.55,0-2.87,0.66-3.92,2.06c-1.09,1.32-1.59,2.91-1.59,4.77
		v10.62h-3.06v-20.05h3.06v3.49c0.54-1.16,1.24-2.09,2.09-2.75c1.05-0.85,2.25-1.28,3.64-1.28
		C1002.13,673.53,1003.06,673.69,1003.79,674z"/>
	<path class="st0" d="M1012.71,690.2c0.46,0.47,0.7,1.01,0.7,1.71c0,0.66-0.23,1.2-0.7,1.67s-1.05,0.7-1.67,0.7
		c-0.7,0-1.24-0.23-1.67-0.7c-0.47-0.47-0.7-1.01-0.7-1.67c0-0.7,0.23-1.24,0.7-1.71c0.43-0.47,0.97-0.7,1.67-0.7
		C1011.67,689.51,1012.25,689.74,1012.71,690.2z"/>
	<path class="st0" d="M1024.89,690.2c0.46,0.47,0.7,1.01,0.7,1.71c0,0.66-0.23,1.2-0.7,1.67s-1.05,0.7-1.67,0.7
		c-0.7,0-1.24-0.23-1.67-0.7c-0.47-0.47-0.7-1.01-0.7-1.67c0-0.7,0.23-1.24,0.7-1.71c0.43-0.47,0.97-0.7,1.67-0.7
		C1023.84,689.51,1024.43,689.74,1024.89,690.2z"/>
	<path class="st0" d="M1037.07,690.2c0.46,0.47,0.7,1.01,0.7,1.71c0,0.66-0.23,1.2-0.7,1.67s-1.05,0.7-1.67,0.7
		c-0.7,0-1.24-0.23-1.67-0.7c-0.47-0.47-0.7-1.01-0.7-1.67c0-0.7,0.23-1.24,0.7-1.71c0.43-0.47,0.97-0.7,1.67-0.7
		C1036.02,689.51,1036.6,689.74,1037.07,690.2z"/>
</g>
<g>
	<g>
		
			<linearGradient id="SVGID_1_" gradientUnits="userSpaceOnUse" x1="-221.7248" y1="1756.6761" x2="-252.6686" y2="1783.6609" gradientTransform="matrix(0.7071 -0.7071 0.7071 0.7071 -593.5517 207.7469)">
			<stop  offset="0" style="stop-color:#88FFF6"/>
			<stop  offset="0.0285" style="stop-color:#87FDF4;stop-opacity:0.9968"/>
			<stop  offset="0.2198" style="stop-color:#84F7EE;stop-opacity:0.9509"/>
			<stop  offset="0.4802" style="stop-color:#7DE5DD;stop-opacity:0.8883"/>
			<stop  offset="0.485" style="stop-color:#7DE5DD;stop-opacity:0.8872"/>
			<stop  offset="0.5329" style="stop-color:#77DBD3;stop-opacity:0.8047"/>
			<stop  offset="0.6157" style="stop-color:#68BEB8;stop-opacity:0.662"/>
			<stop  offset="0.7236" style="stop-color:#4F918C;stop-opacity:0.4761"/>
			<stop  offset="0.8524" style="stop-color:#2C514E;stop-opacity:0.2543"/>
			<stop  offset="0.9974" style="stop-color:#010201;stop-opacity:4.487395e-03"/>
			<stop  offset="1" style="stop-color:#000000;stop-opacity:0"/>
		</linearGradient>
		<path class="st1" d="M515.04,1608.06l-11.27,11.27c-7.01-5.99-17.6-5.66-24.23,0.97s-6.95,17.21-0.96,24.23l-5.36,5.36
			c-8.93-9.97-8.61-25.36,0.97-34.94c7.84-7.84,19.55-9.48,29.02-4.94c0.04,0.02,0.07,0.04,0.11,0.05
			C507.14,1611.9,511.87,1611.23,515.04,1608.06z"/>
		
			<linearGradient id="SVGID_00000095339555776982346600000003385087056130079416_" gradientUnits="userSpaceOnUse" x1="1528.9058" y1="249.5733" x2="1497.9619" y2="276.558" gradientTransform="matrix(-0.7071 0.7071 -0.7071 -0.7071 1750.1113 754.5524)">
			<stop  offset="0" style="stop-color:#88FFF6"/>
			<stop  offset="0.0285" style="stop-color:#87FDF4;stop-opacity:0.9968"/>
			<stop  offset="0.2198" style="stop-color:#84F7EE;stop-opacity:0.9509"/>
			<stop  offset="0.4802" style="stop-color:#7DE5DD;stop-opacity:0.8883"/>
			<stop  offset="0.485" style="stop-color:#7DE5DD;stop-opacity:0.8872"/>
			<stop  offset="0.5329" style="stop-color:#77DBD3;stop-opacity:0.8047"/>
			<stop  offset="0.6157" style="stop-color:#68BEB8;stop-opacity:0.662"/>
			<stop  offset="0.7236" style="stop-color:#4F918C;stop-opacity:0.4761"/>
			<stop  offset="0.8524" style="stop-color:#2C514E;stop-opacity:0.2543"/>
			<stop  offset="0.9974" style="stop-color:#010201;stop-opacity:4.487395e-03"/>
			<stop  offset="1" style="stop-color:#000000;stop-opacity:0"/>
		</linearGradient>
		<path style="fill:url(#SVGID_00000095339555776982346600000003385087056130079416_);" d="M469.32,1657.8l11.27-11.27
			c7.01,5.99,17.6,5.66,24.23-0.97s6.95-17.21,0.96-24.23l5.36-5.36c8.93,9.97,8.61,25.36-0.97,34.94
			c-7.84,7.84-19.55,9.48-29.02,4.94c-0.04-0.02-0.07-0.04-0.11-0.05C477.21,1653.96,472.49,1654.63,469.32,1657.8z"/>
	</g>
	<path class="st0" d="M580.51,1657.99h-9.78l-21.29-20.78H536.9v20.78h-7.58v-50.12h25.87c11.25,0.33,16.74,5.13,17.39,14.42
		c0,8.48-4.65,13.29-13.94,14.42L580.51,1657.99z M536.9,1613.98v17.11h16.13c7.82,0,11.65-2.85,11.49-8.56
		c0-5.7-3.83-8.56-11.49-8.56H536.9V1613.98z"/>
	<path class="st0" d="M586.74,1657.99v-50.12h7.58v50.12H586.74z"/>
	<path class="st0" d="M635.95,1631.21v7.3h14.25c-2.49,8.45-10.39,14.27-19.51,13.9c-9.76-0.39-17.83-8.13-18.62-17.87
		c-0.93-11.48,8.15-21.11,19.43-21.11c7.65,0,14.63,4.5,17.78,11.48l6.65-3.01c-4.33-9.58-13.92-15.77-24.43-15.77
		c-14.96,0-27.09,12.32-26.79,27.34c0.28,14.29,11.97,25.97,26.26,26.25c13.43,0.26,24.82-9.26,26.98-22.43c0-0.01,0-0.01,0-0.02
		c0.18-1.13,0.26-2.27,0.27-3.41l0.03-2.64L635.95,1631.21L635.95,1631.21z"/>
</g>
<g>
	<g>
		
			<linearGradient id="SVGID_00000133486968536494773260000018378386792092297891_" gradientUnits="userSpaceOnUse" x1="795.3585" y1="836.8202" x2="632.8943" y2="978.4978" gradientTransform="matrix(0.7071 -0.7071 0.7071 0.7071 -593.5517 207.7469)">
			<stop  offset="0" style="stop-color:#88FFF6"/>
			<stop  offset="0.0285" style="stop-color:#87FDF4;stop-opacity:0.9968"/>
			<stop  offset="0.2198" style="stop-color:#84F7EE;stop-opacity:0.9509"/>
			<stop  offset="0.4802" style="stop-color:#7DE5DD;stop-opacity:0.8883"/>
			<stop  offset="0.485" style="stop-color:#7DE5DD;stop-opacity:0.8872"/>
			<stop  offset="0.5329" style="stop-color:#77DBD3;stop-opacity:0.8047"/>
			<stop  offset="0.6157" style="stop-color:#68BEB8;stop-opacity:0.662"/>
			<stop  offset="0.7236" style="stop-color:#4F918C;stop-opacity:0.4761"/>
			<stop  offset="0.8524" style="stop-color:#2C514E;stop-opacity:0.2543"/>
			<stop  offset="0.9974" style="stop-color:#010201;stop-opacity:4.487395e-03"/>
			<stop  offset="1" style="stop-color:#000000;stop-opacity:0"/>
		</linearGradient>
		<path style="fill:url(#SVGID_00000133486968536494773260000018378386792092297891_);" d="M682.52,244.28l-59.16,59.16
			c-36.82-31.43-92.4-29.74-127.21,5.07c-34.8,34.8-36.49,90.38-5.06,127.2l-28.15,28.15c-46.88-52.37-45.19-133.15,5.12-183.45
			c41.15-41.15,102.66-49.77,152.37-25.91c0.19,0.09,0.38,0.19,0.57,0.28C641.07,264.43,665.88,260.93,682.52,244.28z"/>
		
			<linearGradient id="SVGID_00000037692030764010829590000004931351176578090372_" gradientUnits="userSpaceOnUse" x1="667.3616" y1="1009.4519" x2="504.8972" y2="1151.1295" gradientTransform="matrix(-0.7071 0.7071 -0.7071 -0.7071 1750.1113 754.5524)">
			<stop  offset="0" style="stop-color:#88FFF6"/>
			<stop  offset="0.0285" style="stop-color:#87FDF4;stop-opacity:0.9968"/>
			<stop  offset="0.2198" style="stop-color:#84F7EE;stop-opacity:0.9509"/>
			<stop  offset="0.4802" style="stop-color:#7DE5DD;stop-opacity:0.8883"/>
			<stop  offset="0.485" style="stop-color:#7DE5DD;stop-opacity:0.8872"/>
			<stop  offset="0.5329" style="stop-color:#77DBD3;stop-opacity:0.8047"/>
			<stop  offset="0.6157" style="stop-color:#68BEB8;stop-opacity:0.662"/>
			<stop  offset="0.7236" style="stop-color:#4F918C;stop-opacity:0.4761"/>
			<stop  offset="0.8524" style="stop-color:#2C514E;stop-opacity:0.2543"/>
			<stop  offset="0.9974" style="stop-color:#010201;stop-opacity:4.487395e-03"/>
			<stop  offset="1" style="stop-color:#000000;stop-opacity:0"/>
		</linearGradient>
		<path style="fill:url(#SVGID_00000037692030764010829590000004931351176578090372_);" d="M442.48,505.42l59.16-59.16
			c36.82,31.43,92.4,29.74,127.21-5.07c34.8-34.8,36.49-90.38,5.06-127.2l28.15-28.15c46.88,52.37,45.19,133.15-5.12,183.45
			c-41.15,41.15-102.66,49.77-152.37,25.91c-0.19-0.09-0.38-0.19-0.57-0.28C483.93,485.27,459.12,488.78,442.48,505.42z"/>
	</g>
	<g>
		<path class="st5" d="M602.88,334.47L602.88,334.47c-11.24-11.24-29.47-11.24-40.71,0l-20.35,20.35l40.71,40.71l20.35-20.35
			C614.12,363.94,614.12,345.71,602.88,334.47z"/>
		<path class="st6" d="M521.49,415.86L521.49,415.86c11.24,11.24,29.47,11.24,40.71,0l20.35-20.35l-40.71-40.71l-20.35,20.35
			C510.25,386.39,510.25,404.62,521.49,415.86z"/>
		<path class="st7" d="M602.88,334.47L602.88,334.47c-11.24-11.24-29.47-11.24-40.71,0l-20.35,20.35l40.71,40.71l20.35-20.35
			C614.12,363.94,614.12,345.71,602.88,334.47z"/>
		<g>
			<path class="st5" d="M598.55,331.36L598.55,331.36c-1.33-1.33-2.72-2.54-4.16-3.63c9.89,12.99,10.36,30,0.39,39.97l-20.05,20.05
				l7.79,7.79l20.05-20.05C613.65,364.41,611.85,344.66,598.55,331.36z"/>
		</g>
		<g>
			<path class="st8" d="M574.76,387.71l-20.69,20.69c-8.31,8.31-21.19,9.77-32.71,4.82c13.21,11.19,31.58,11.9,42.33,1.15
				l18.86-18.86L574.76,387.71z"/>
		</g>
		<line class="st9" x1="541.82" y1="354.83" x2="582.53" y2="395.54"/>
		<path class="st9" d="M521.49,415.86L521.49,415.86c-11.24-11.24-11.24-29.47,0-40.71l41.3-41.3c11.24-11.24,29.47-11.24,40.71,0
			l0,0c11.24,11.24,11.24,29.47,0,40.71l-41.3,41.3C550.96,427.1,532.74,427.1,521.49,415.86z"/>
		<path class="st7" d="M524.1,393.6c-0.01,0.15-0.03,0.3-0.04,0.46c-0.05,1.15-0.2,2.3,0.09,3.45c0.37,1.06,0.52,2.18,0.71,3.28
			c0.12,0.69-0.42,1.38-1.08,1.52c-0.74,0.16-1.1-0.36-1.27-0.9c-0.53-1.74-0.96-3.49-0.76-5.37c0.1-0.98-0.16-2.01,0.08-3.02
			c0.09-0.38,0.17-0.77,0.38-1.1c0.29-0.45,0.69-0.63,1.21-0.47c0.5,0.15,0.84,0.45,0.74,1.03
			C524.09,392.84,524.4,393.23,524.1,393.6z"/>
		<path class="st10" d="M527.69,385.66c0.04,0.36-0.12,0.55-0.27,0.72c-0.55,0.59-1.11,1.18-1.68,1.75
			c-0.49,0.49-0.89,0.13-1.3-0.16c-0.47-0.33-0.48-0.72-0.2-1.15c0.53-0.79,1.25-1.4,1.91-2.06c0.19-0.19,0.46-0.3,0.71-0.09
			C527.22,384.96,527.59,385.26,527.69,385.66z"/>
		<path class="st10" d="M529.09,408.03c-0.13,0.38-0.29,0.86-0.81,1.06c-0.46,0.17-0.8-0.12-1.1-0.41c-0.6-0.58-1.21-1.14-1.72-1.8
			c-0.41-0.52-0.37-0.97,0.11-1.44c0.46-0.44,0.89-0.47,1.35-0.03c0.65,0.63,1.31,1.26,1.98,1.88
			C529.09,407.48,529.15,407.68,529.09,408.03z"/>
	</g>
</g>
</svg>
