<?xml version="1.0" encoding="utf-8"?>
<!-- Generator: Adobe Illustrator 27.5.0, SVG Export Plug-In . SVG Version: 6.00 Build 0)  -->
<svg version="1.1" id="图层_1" xmlns="http://www.w3.org/2000/svg" xmlns:xlink="http://www.w3.org/1999/xlink" x="0px" y="0px"
	 viewBox="0 0 1125 1888.68" style="enable-background:new 0 0 1125 1888.68;" xml:space="preserve">
<style type="text/css">
	.st0{fill:#88FFF6;}
	.st1{fill:url(#SVGID_1_);}
	.st2{fill:url(#SVGID_00000047782635225226294210000011933054493877590183_);}
	.st3{fill:url(#SVGID_00000069391260134668195730000012071552979737523875_);}
	.st4{fill:url(#SVGID_00000106118377458997105080000001529266383705032116_);}
	.st5{fill:#BAD0D1;}
	.st6{fill:#52D593;}
	.st7{fill:#FFFFFF;}
	.st8{fill:#1C8862;}
	.st9{fill:none;stroke:#174542;stroke-width:6;stroke-miterlimit:10;}
	.st10{fill:#FEFFFE;}
</style>
<rect x="-1159.97" width="3444.94" height="1888.68"/>
<g>
	<path class="st0" d="M132.1,666.44v2.75h-9.77v24.93h-3.14v-24.93h-9.77v-2.75H132.1z"/>
	<path class="st0" d="M140.2,665.89v11.48c0.7-1.28,1.63-2.25,2.79-2.91c1.09-0.62,2.29-0.93,3.64-0.93c2.33,0,4.15,0.66,5.39,2.06
		c1.24,1.36,1.86,3.33,1.86,5.89v12.64h-3.1v-12.17c0-1.86-0.47-3.3-1.32-4.3c-0.93-1.01-2.21-1.51-3.88-1.51
		c-1.55,0-2.83,0.62-3.84,1.86c-1.05,1.24-1.55,2.83-1.55,4.69v11.44h-3.1V665.9h3.11L140.2,665.89L140.2,665.89z"/>
	<path class="st0" d="M176.15,676.79c1.47,1.94,2.25,4.69,2.33,8.18h-15.82c0.15,2.25,0.74,3.99,1.82,5.23
		c1.09,1.24,2.6,1.86,4.5,1.86c1.63,0,2.99-0.43,3.99-1.24c0.85-0.7,1.51-1.74,2.02-3.14h3.1c-0.46,1.94-1.36,3.49-2.71,4.73
		c-1.67,1.47-3.8,2.25-6.4,2.25c-2.87,0-5.2-0.97-6.9-2.83c-1.78-1.94-2.64-4.5-2.64-7.75c0-2.95,0.81-5.43,2.52-7.41
		c1.71-2.09,3.99-3.14,6.9-3.14C172.08,673.53,174.52,674.62,176.15,676.79z M164.63,677.88c-1.09,1.16-1.71,2.71-1.9,4.69h12.52
		c-0.39-4.3-2.52-6.44-6.32-6.44C167.15,676.13,165.72,676.71,164.63,677.88z"/>
	<path class="st0" d="M215.31,676.75c1.51,1.94,2.29,4.38,2.29,7.41c0,2.95-0.78,5.39-2.25,7.33c-1.63,2.09-3.84,3.18-6.71,3.18
		s-5.08-1.4-6.63-4.19v11.32h-3.1v-27.72h2.91v3.3c1.43-2.56,3.64-3.84,6.67-3.84C211.36,673.53,213.64,674.58,215.31,676.75z
		 M203.41,678.46c-1.01,1.4-1.51,3.26-1.51,5.51v0.39c0,2.33,0.54,4.19,1.71,5.62c1.09,1.4,2.52,2.13,4.38,2.13
		c2.17,0,3.8-0.78,4.92-2.25c1.01-1.4,1.51-3.3,1.51-5.7c0-2.37-0.5-4.27-1.43-5.66c-1.12-1.63-2.75-2.4-4.89-2.4
		C206.08,676.09,204.49,676.87,203.41,678.46z"/>
	<path class="st0" d="M238.65,675.78c1.16,1.32,1.78,3.14,1.78,5.47v12.87h-2.91v-3.37c-0.78,1.09-1.82,1.98-3.06,2.68
		c-1.47,0.81-3.14,1.24-5,1.24c-2.02,0-3.61-0.5-4.81-1.51c-1.24-1.05-1.86-2.4-1.86-4.03c0-2.29,0.89-3.99,2.75-5.16
		c1.63-1.09,3.95-1.67,6.98-1.71l4.81-0.08v-1.05c0-3.37-1.74-5.04-5.23-5.04c-1.47,0-2.68,0.27-3.61,0.89
		c-1.05,0.62-1.71,1.59-2.02,2.87l-3.06-0.23c0.43-2.09,1.47-3.68,3.1-4.69c1.47-0.93,3.37-1.4,5.78-1.4
		C235.17,673.53,237.26,674.27,238.65,675.78z M232.72,684.58c-4.5,0.08-6.75,1.55-6.75,4.46c0,0.93,0.35,1.67,1.12,2.29
		c0.78,0.58,1.78,0.89,3.02,0.89c1.9,0,3.57-0.62,5.04-1.86c1.43-1.2,2.17-2.6,2.17-4.15v-1.71L232.72,684.58z"/>
	<path class="st0" d="M262.19,677.53v-3.45h3.1v18.65c0,6.4-3.06,9.62-9.15,9.62c-2.71,0-4.81-0.54-6.2-1.63
		c-1.43-1.09-2.33-2.71-2.68-4.89h3.1c0.23,1.36,0.81,2.37,1.71,2.99c0.89,0.66,2.25,1.01,4.07,1.01c4.03,0,6.05-2.25,6.05-6.67
		v-3.53c-1.47,2.68-3.72,4.03-6.75,4.03c-2.79,0-5-0.97-6.63-2.87c-1.63-1.86-2.4-4.23-2.4-7.13c0-2.95,0.78-5.31,2.4-7.17
		c1.63-1.98,3.84-2.95,6.63-2.95C258.47,673.53,260.72,674.85,262.19,677.53z M251.22,678.26c-1.09,1.32-1.63,3.14-1.63,5.39
		c0,2.09,0.47,3.84,1.43,5.16c1.09,1.47,2.68,2.25,4.85,2.25c2.02,0,3.57-0.7,4.73-2.09c1.09-1.36,1.63-3.14,1.63-5.31
		c0-2.25-0.54-4.07-1.63-5.39c-1.16-1.47-2.71-2.17-4.69-2.17C253.89,676.09,252.34,676.79,251.22,678.26z"/>
	<path class="st0" d="M287.59,676.79c1.47,1.94,2.25,4.69,2.33,8.18H274.1c0.15,2.25,0.74,3.99,1.82,5.23
		c1.09,1.24,2.6,1.86,4.5,1.86c1.63,0,2.99-0.43,3.99-1.24c0.85-0.7,1.51-1.74,2.02-3.14h3.1c-0.46,1.94-1.36,3.49-2.71,4.73
		c-1.67,1.47-3.8,2.25-6.4,2.25c-2.87,0-5.2-0.97-6.9-2.83c-1.78-1.94-2.64-4.5-2.64-7.75c0-2.95,0.81-5.43,2.52-7.41
		c1.71-2.09,3.99-3.14,6.9-3.14C283.52,673.53,285.96,674.62,287.59,676.79z M276.08,677.88c-1.09,1.16-1.71,2.71-1.9,4.69h12.52
		c-0.39-4.3-2.52-6.44-6.32-6.44C278.6,676.13,277.16,676.71,276.08,677.88z"/>
	<path class="st0" d="M314.58,667.17c0.47,0.39,0.7,0.93,0.7,1.63c0,0.66-0.23,1.2-0.7,1.67c-0.46,0.43-1.01,0.66-1.67,0.66
		s-1.2-0.23-1.67-0.66c-0.47-0.47-0.66-1.01-0.66-1.67c0-0.7,0.19-1.24,0.66-1.63c0.46-0.47,1.01-0.66,1.67-0.66
		S314.12,666.71,314.58,667.17z M314.46,674.08v20.05h-3.1v-20.05H314.46z"/>
	<path class="st0" d="M337.53,679.77h-3.02c-0.27-1.24-0.78-2.17-1.55-2.71c-0.85-0.62-2.09-0.93-3.68-0.93
		c-1.4,0-2.48,0.23-3.26,0.78c-0.85,0.5-1.28,1.2-1.28,2.09c0,0.85,0.54,1.59,1.71,2.17c0.74,0.35,2.13,0.78,4.15,1.32
		c2.4,0.58,4.11,1.2,5.16,1.86c1.59,1.01,2.4,2.36,2.4,4.11c0,4.11-2.83,6.2-8.49,6.2c-5.27,0-8.14-2.33-8.61-6.94h3.02
		c0.23,1.59,0.81,2.71,1.67,3.41c0.85,0.62,2.13,0.93,3.84,0.93c3.57,0,5.39-1.16,5.39-3.41c0-1.12-0.66-1.98-1.9-2.6
		c-0.66-0.31-2.09-0.74-4.26-1.28c-2.37-0.58-4.03-1.16-4.96-1.78c-1.55-0.93-2.29-2.21-2.29-3.92c0-1.71,0.74-3.02,2.25-4.03
		c1.4-1.01,3.26-1.51,5.51-1.51C334.28,673.53,336.99,675.59,337.53,679.77z"/>
	<path class="st0" d="M361.69,674.08v12.25c0,1.9,0.39,3.33,1.2,4.27c0.81,0.93,2.13,1.43,3.95,1.43c1.32,0,2.52-0.54,3.57-1.55
		c1.09-1.09,1.75-2.48,1.98-4.19v-12.21h3.1v20.05h-3.1v-3.1c-1.63,2.4-3.8,3.65-6.51,3.65c-4.89,0-7.29-2.75-7.29-8.18v-12.41h3.1
		L361.69,674.08L361.69,674.08z"/>
	<path class="st0" d="M398.65,676.75c1.51,1.94,2.29,4.38,2.29,7.41c0,2.95-0.78,5.39-2.25,7.33c-1.63,2.09-3.84,3.18-6.71,3.18
		s-5.08-1.4-6.63-4.19v11.32h-3.1v-27.72h2.91v3.3c1.43-2.56,3.64-3.84,6.67-3.84C394.69,673.53,396.98,674.58,398.65,676.75z
		 M386.74,678.46c-1.01,1.4-1.51,3.26-1.51,5.51v0.39c0,2.33,0.54,4.19,1.71,5.62c1.08,1.4,2.52,2.13,4.38,2.13
		c2.17,0,3.8-0.78,4.92-2.25c1.01-1.4,1.51-3.3,1.51-5.7c0-2.37-0.5-4.27-1.43-5.66c-1.12-1.63-2.75-2.4-4.89-2.4
		C389.42,676.09,387.83,676.87,386.74,678.46z"/>
	<path class="st0" d="M424.82,665.89v28.23h-2.91v-3.3c-1.4,2.56-3.64,3.84-6.67,3.84c-2.95,0-5.23-1.09-6.86-3.18
		c-1.51-1.94-2.25-4.42-2.25-7.44c0-2.95,0.74-5.35,2.25-7.29c1.63-2.17,3.84-3.22,6.71-3.22s5.08,1.4,6.63,4.23V665.9h3.1V665.89z
		 M410.79,678.42c-1.01,1.36-1.47,3.22-1.47,5.62s0.47,4.3,1.43,5.7c1.09,1.55,2.71,2.37,4.89,2.37c2.02,0,3.57-0.78,4.69-2.33
		c0.97-1.4,1.47-3.22,1.47-5.47v-0.39c0-2.33-0.58-4.23-1.67-5.66c-1.12-1.47-2.6-2.17-4.38-2.17
		C413.54,676.09,411.87,676.87,410.79,678.42z"/>
	<path class="st0" d="M446.65,675.78c1.16,1.32,1.78,3.14,1.78,5.47v12.87h-2.91v-3.37c-0.78,1.09-1.82,1.98-3.06,2.68
		c-1.47,0.81-3.14,1.24-5,1.24c-2.02,0-3.61-0.5-4.81-1.51c-1.24-1.05-1.86-2.4-1.86-4.03c0-2.29,0.89-3.99,2.75-5.16
		c1.63-1.09,3.96-1.67,6.98-1.71l4.81-0.08v-1.05c0-3.37-1.74-5.04-5.23-5.04c-1.47,0-2.67,0.27-3.61,0.89
		c-1.05,0.62-1.71,1.59-2.02,2.87l-3.06-0.23c0.43-2.09,1.47-3.68,3.1-4.69c1.47-0.93,3.37-1.4,5.78-1.4
		C443.16,673.53,445.26,674.27,446.65,675.78z M440.72,684.58c-4.5,0.08-6.75,1.55-6.75,4.46c0,0.93,0.35,1.67,1.12,2.29
		c0.78,0.58,1.78,0.89,3.02,0.89c1.9,0,3.57-0.62,5.04-1.86c1.43-1.2,2.17-2.6,2.17-4.15v-1.71L440.72,684.58z"/>
	<path class="st0" d="M460.54,674.08h4.96v2.6h-4.96v12.76c0,0.74,0.12,1.28,0.43,1.59c0.27,0.31,0.78,0.5,1.47,0.5H465v2.6h-3.02
		c-1.63,0-2.83-0.43-3.53-1.28c-0.66-0.78-0.97-1.9-0.97-3.41v-12.76h-4.03v-2.6h4.03v-5.2l3.06-1.28V674.08z"/>
	<path class="st0" d="M475.12,667.17c0.47,0.39,0.7,0.93,0.7,1.63c0,0.66-0.23,1.2-0.7,1.67c-0.46,0.43-1.01,0.66-1.67,0.66
		s-1.2-0.23-1.67-0.66c-0.47-0.47-0.66-1.01-0.66-1.67c0-0.7,0.19-1.24,0.66-1.63c0.46-0.47,1.01-0.66,1.67-0.66
		S474.65,666.71,475.12,667.17z M475,674.08v20.05h-3.1v-20.05H475z"/>
	<path class="st0" d="M499.62,681.79v12.33h-3.1v-12.1c0-3.92-1.78-5.85-5.27-5.85c-1.4,0-2.6,0.5-3.61,1.51
		c-1.09,1.09-1.67,2.52-1.78,4.34v12.1h-3.1v-20.05h3.1v2.95c0.7-1.12,1.59-1.98,2.67-2.56c1.09-0.62,2.29-0.93,3.61-0.93
		C497.1,673.53,499.62,676.29,499.62,681.79z"/>
	<path class="st0" d="M521.38,677.53v-3.45h3.1v18.65c0,6.4-3.06,9.62-9.15,9.62c-2.71,0-4.81-0.54-6.2-1.63
		c-1.43-1.09-2.33-2.71-2.68-4.89h3.1c0.23,1.36,0.81,2.37,1.71,2.99c0.89,0.66,2.25,1.01,4.07,1.01c4.03,0,6.05-2.25,6.05-6.67
		v-3.53c-1.47,2.68-3.72,4.03-6.75,4.03c-2.79,0-5-0.97-6.63-2.87c-1.63-1.86-2.4-4.23-2.4-7.13c0-2.95,0.78-5.31,2.4-7.17
		c1.63-1.98,3.84-2.95,6.63-2.95C517.65,673.53,519.9,674.85,521.38,677.53z M510.4,678.26c-1.09,1.32-1.63,3.14-1.63,5.39
		c0,2.09,0.47,3.84,1.43,5.16c1.09,1.47,2.68,2.25,4.85,2.25c2.02,0,3.57-0.7,4.73-2.09c1.09-1.36,1.63-3.14,1.63-5.31
		c0-2.25-0.54-4.07-1.63-5.39c-1.16-1.47-2.71-2.17-4.69-2.17C513.08,676.09,511.53,676.79,510.4,678.26z"/>
	<path class="st0" d="M536.07,690.59c0.5,0.7,0.78,1.59,0.78,2.71c0,1.71-0.5,3.22-1.51,4.54c-1.01,1.24-2.37,2.09-4.03,2.52v-1.9
		c1.01-0.35,1.86-0.93,2.48-1.71c0.54-0.81,0.85-1.67,0.85-2.6c-0.19,0.08-0.46,0.16-0.85,0.16c-0.66,0-1.2-0.23-1.67-0.7
		c-0.47-0.47-0.7-1.05-0.7-1.71c0-0.74,0.23-1.32,0.74-1.74c0.43-0.47,1.01-0.66,1.78-0.66
		C534.79,689.51,535.53,689.86,536.07,690.59z"/>
	<path class="st0" d="M574.65,676.75c1.51,1.94,2.29,4.38,2.29,7.41c0,2.95-0.78,5.39-2.25,7.33c-1.63,2.09-3.84,3.18-6.71,3.18
		s-5.08-1.4-6.63-4.19v11.32h-3.1v-27.72h2.91v3.3c1.43-2.56,3.64-3.84,6.67-3.84C570.7,673.53,572.99,674.58,574.65,676.75z
		 M562.75,678.46c-1.01,1.4-1.51,3.26-1.51,5.51v0.39c0,2.33,0.54,4.19,1.71,5.62c1.08,1.4,2.52,2.13,4.38,2.13
		c2.17,0,3.8-0.78,4.92-2.25c1.01-1.4,1.51-3.3,1.51-5.7c0-2.37-0.5-4.27-1.43-5.66c-1.12-1.63-2.75-2.4-4.89-2.4
		C565.43,676.09,563.84,676.87,562.75,678.46z"/>
	<path class="st0" d="M586.6,665.89v28.23h-3.06v-28.23H586.6z"/>
	<path class="st0" d="M609.51,676.79c1.47,1.94,2.25,4.69,2.33,8.18h-15.82c0.16,2.25,0.74,3.99,1.82,5.23s2.6,1.86,4.5,1.86
		c1.63,0,2.99-0.43,3.99-1.24c0.85-0.7,1.51-1.74,2.02-3.14h3.1c-0.47,1.94-1.36,3.49-2.71,4.73c-1.67,1.47-3.8,2.25-6.4,2.25
		c-2.87,0-5.2-0.97-6.9-2.83c-1.78-1.94-2.64-4.5-2.64-7.75c0-2.95,0.81-5.43,2.52-7.41c1.71-2.09,3.99-3.14,6.9-3.14
		C605.44,673.53,607.89,674.62,609.51,676.79z M598,677.88c-1.09,1.16-1.71,2.71-1.9,4.69h12.52c-0.39-4.3-2.52-6.44-6.32-6.44
		C600.52,676.13,599.08,676.71,598,677.88z"/>
	<path class="st0" d="M632.51,675.78c1.16,1.32,1.78,3.14,1.78,5.47v12.87h-2.91v-3.37c-0.78,1.09-1.82,1.98-3.06,2.68
		c-1.47,0.81-3.14,1.24-5,1.24c-2.02,0-3.61-0.5-4.81-1.51c-1.24-1.05-1.86-2.4-1.86-4.03c0-2.29,0.89-3.99,2.75-5.16
		c1.63-1.09,3.96-1.67,6.98-1.71l4.81-0.08v-1.05c0-3.37-1.74-5.04-5.23-5.04c-1.47,0-2.67,0.27-3.61,0.89
		c-1.05,0.62-1.71,1.59-2.02,2.87l-3.06-0.23c0.43-2.09,1.47-3.68,3.1-4.69c1.47-0.93,3.37-1.4,5.78-1.4
		C629.02,673.53,631.11,674.27,632.51,675.78z M626.58,684.58c-4.5,0.08-6.75,1.55-6.75,4.46c0,0.93,0.35,1.67,1.12,2.29
		c0.78,0.58,1.78,0.89,3.02,0.89c1.9,0,3.57-0.62,5.04-1.86c1.43-1.2,2.17-2.6,2.17-4.15v-1.71L626.58,684.58z"/>
	<path class="st0" d="M656.36,679.77h-3.02c-0.27-1.24-0.78-2.17-1.55-2.71c-0.85-0.62-2.09-0.93-3.68-0.93
		c-1.4,0-2.48,0.23-3.26,0.78c-0.85,0.5-1.28,1.2-1.28,2.09c0,0.85,0.54,1.59,1.71,2.17c0.74,0.35,2.13,0.78,4.15,1.32
		c2.4,0.58,4.11,1.2,5.16,1.86c1.59,1.01,2.4,2.36,2.4,4.11c0,4.11-2.83,6.2-8.49,6.2c-5.27,0-8.14-2.33-8.61-6.94h3.02
		c0.23,1.59,0.81,2.71,1.67,3.41c0.85,0.62,2.13,0.93,3.84,0.93c3.57,0,5.39-1.16,5.39-3.41c0-1.12-0.66-1.98-1.9-2.6
		c-0.66-0.31-2.09-0.74-4.26-1.28c-2.37-0.58-4.03-1.16-4.96-1.78c-1.55-0.93-2.29-2.21-2.29-3.92c0-1.71,0.74-3.02,2.25-4.03
		c1.4-1.01,3.26-1.51,5.51-1.51C653.1,673.53,655.81,675.59,656.36,679.77z"/>
	<path class="st0" d="M678.11,676.79c1.47,1.94,2.25,4.69,2.33,8.18h-15.82c0.16,2.25,0.74,3.99,1.82,5.23s2.6,1.86,4.5,1.86
		c1.63,0,2.99-0.43,3.99-1.24c0.85-0.7,1.51-1.74,2.02-3.14h3.1c-0.47,1.94-1.36,3.49-2.71,4.73c-1.67,1.47-3.8,2.25-6.4,2.25
		c-2.87,0-5.2-0.97-6.9-2.83c-1.78-1.94-2.64-4.5-2.64-7.75c0-2.95,0.81-5.43,2.52-7.41c1.71-2.09,3.99-3.14,6.9-3.14
		C674.04,673.53,676.48,674.62,678.11,676.79z M666.59,677.88c-1.09,1.16-1.71,2.71-1.9,4.69h12.52c-0.39-4.3-2.52-6.44-6.32-6.44
		C669.11,676.13,667.68,676.71,666.59,677.88z"/>
	<path class="st0" d="M706.22,674.08h4.96v2.6h-4.96v12.76c0,0.74,0.12,1.28,0.43,1.59c0.27,0.31,0.78,0.5,1.47,0.5h2.56v2.6h-3.02
		c-1.63,0-2.83-0.43-3.53-1.28c-0.66-0.78-0.97-1.9-0.97-3.41v-12.76h-4.03v-2.6h4.03v-5.2l3.06-1.28L706.22,674.08L706.22,674.08z"
		/>
	<path class="st0" d="M728.13,674v3.1c-1.01-0.31-2.02-0.43-2.99-0.43c-1.55,0-2.87,0.66-3.92,2.06c-1.09,1.32-1.59,2.91-1.59,4.77
		v10.62h-3.06v-20.05h3.06v3.49c0.54-1.16,1.24-2.09,2.09-2.75c1.05-0.85,2.25-1.28,3.64-1.28
		C726.46,673.53,727.4,673.69,728.13,674z"/>
	<path class="st0" d="M733.83,674.08l6.13,15.82l5.93-15.82h3.41l-10.97,27.72h-3.37l3.45-8.14l-7.95-19.58L733.83,674.08
		L733.83,674.08z"/>
	<path class="st0" d="M783.78,675.78c1.16,1.32,1.78,3.14,1.78,5.47v12.87h-2.91v-3.37c-0.78,1.09-1.82,1.98-3.06,2.68
		c-1.47,0.81-3.14,1.24-5,1.24c-2.02,0-3.61-0.5-4.81-1.51c-1.24-1.05-1.86-2.4-1.86-4.03c0-2.29,0.89-3.99,2.75-5.16
		c1.63-1.09,3.96-1.67,6.98-1.71l4.81-0.08v-1.05c0-3.37-1.74-5.04-5.23-5.04c-1.47,0-2.67,0.27-3.61,0.89
		c-1.05,0.62-1.71,1.59-2.02,2.87l-3.06-0.23c0.43-2.09,1.47-3.68,3.1-4.69c1.47-0.93,3.37-1.4,5.78-1.4
		C780.29,673.53,782.38,674.27,783.78,675.78z M777.84,684.58c-4.5,0.08-6.75,1.55-6.75,4.46c0,0.93,0.35,1.67,1.12,2.29
		c0.78,0.58,1.78,0.89,3.02,0.89c1.9,0,3.57-0.62,5.04-1.86c1.43-1.2,2.17-2.6,2.17-4.15v-1.71L777.84,684.58z"/>
	<path class="st0" d="M807.31,677.53v-3.45h3.1v18.65c0,6.4-3.06,9.62-9.15,9.62c-2.71,0-4.81-0.54-6.2-1.63
		c-1.43-1.09-2.33-2.71-2.68-4.89h3.1c0.23,1.36,0.81,2.37,1.71,2.99c0.89,0.66,2.25,1.01,4.07,1.01c4.03,0,6.05-2.25,6.05-6.67
		v-3.53c-1.47,2.68-3.72,4.03-6.75,4.03c-2.79,0-5-0.97-6.63-2.87c-1.63-1.86-2.4-4.23-2.4-7.13c0-2.95,0.78-5.31,2.4-7.17
		c1.63-1.98,3.84-2.95,6.63-2.95C803.59,673.53,805.84,674.85,807.31,677.53z M796.34,678.26c-1.09,1.32-1.63,3.14-1.63,5.39
		c0,2.09,0.47,3.84,1.43,5.16c1.09,1.47,2.68,2.25,4.85,2.25c2.02,0,3.57-0.7,4.73-2.09c1.09-1.36,1.63-3.14,1.63-5.31
		c0-2.25-0.54-4.07-1.63-5.39c-1.16-1.47-2.71-2.17-4.69-2.17C799.02,676.09,797.46,676.79,796.34,678.26z"/>
	<path class="st0" d="M832.25,675.78c1.16,1.32,1.78,3.14,1.78,5.47v12.87h-2.91v-3.37c-0.78,1.09-1.82,1.98-3.06,2.68
		c-1.47,0.81-3.14,1.24-5,1.24c-2.02,0-3.61-0.5-4.81-1.51c-1.24-1.05-1.86-2.4-1.86-4.03c0-2.29,0.89-3.99,2.75-5.16
		c1.63-1.09,3.96-1.67,6.98-1.71l4.81-0.08v-1.05c0-3.37-1.74-5.04-5.23-5.04c-1.47,0-2.67,0.27-3.61,0.89
		c-1.05,0.62-1.71,1.59-2.02,2.87l-3.06-0.23c0.43-2.09,1.47-3.68,3.1-4.69c1.47-0.93,3.37-1.4,5.78-1.4
		C828.76,673.53,830.85,674.27,832.25,675.78z M826.31,684.58c-4.5,0.08-6.75,1.55-6.75,4.46c0,0.93,0.35,1.67,1.12,2.29
		c0.78,0.58,1.78,0.89,3.02,0.89c1.9,0,3.57-0.62,5.04-1.86c1.43-1.2,2.17-2.6,2.17-4.15v-1.71L826.31,684.58z"/>
	<path class="st0" d="M845,667.17c0.47,0.39,0.7,0.93,0.7,1.63c0,0.66-0.23,1.2-0.7,1.67c-0.46,0.43-1.01,0.66-1.67,0.66
		s-1.2-0.23-1.67-0.66c-0.47-0.47-0.66-1.01-0.66-1.67c0-0.7,0.19-1.24,0.66-1.63c0.46-0.47,1.01-0.66,1.67-0.66
		S844.54,666.71,845,667.17z M844.89,674.08v20.05h-3.1v-20.05H844.89z"/>
	<path class="st0" d="M869.51,681.79v12.33h-3.1v-12.1c0-3.92-1.78-5.85-5.27-5.85c-1.4,0-2.6,0.5-3.61,1.51
		c-1.08,1.09-1.67,2.52-1.78,4.34v12.1h-3.1v-20.05h3.1v2.95c0.7-1.12,1.59-1.98,2.67-2.56c1.09-0.62,2.29-0.93,3.61-0.93
		C866.99,673.53,869.51,676.29,869.51,681.79z"/>
	<path class="st0" d="M894.79,665.89v28.23h-3.06v-28.23H894.79z"/>
	<path class="st0" d="M917.24,675.78c1.16,1.32,1.78,3.14,1.78,5.47v12.87h-2.91v-3.37c-0.78,1.09-1.82,1.98-3.06,2.68
		c-1.47,0.81-3.14,1.24-5,1.24c-2.02,0-3.61-0.5-4.81-1.51c-1.24-1.05-1.86-2.4-1.86-4.03c0-2.29,0.89-3.99,2.75-5.16
		c1.63-1.09,3.96-1.67,6.98-1.71l4.81-0.08v-1.05c0-3.37-1.74-5.04-5.23-5.04c-1.47,0-2.67,0.27-3.61,0.89
		c-1.05,0.62-1.71,1.59-2.02,2.87l-3.06-0.23c0.43-2.09,1.47-3.68,3.1-4.69c1.47-0.93,3.37-1.4,5.78-1.4
		C913.75,673.53,915.85,674.27,917.24,675.78z M911.31,684.58c-4.5,0.08-6.75,1.55-6.75,4.46c0,0.93,0.35,1.67,1.12,2.29
		c0.78,0.58,1.78,0.89,3.02,0.89c1.9,0,3.57-0.62,5.04-1.86c1.43-1.2,2.17-2.6,2.17-4.15v-1.71L911.31,684.58z"/>
	<path class="st0" d="M931.13,674.08h4.96v2.6h-4.96v12.76c0,0.74,0.12,1.28,0.43,1.59c0.27,0.31,0.78,0.5,1.47,0.5h2.56v2.6h-3.02
		c-1.63,0-2.83-0.43-3.53-1.28c-0.66-0.78-0.97-1.9-0.97-3.41v-12.76h-4.03v-2.6h4.03v-5.2l3.06-1.28L931.13,674.08L931.13,674.08z"
		/>
	<path class="st0" d="M957.03,676.79c1.47,1.94,2.25,4.69,2.33,8.18h-15.82c0.16,2.25,0.74,3.99,1.82,5.23s2.6,1.86,4.5,1.86
		c1.63,0,2.99-0.43,3.99-1.24c0.85-0.7,1.51-1.74,2.02-3.14h3.1c-0.47,1.94-1.36,3.49-2.71,4.73c-1.67,1.47-3.8,2.25-6.4,2.25
		c-2.87,0-5.2-0.97-6.9-2.83c-1.78-1.94-2.64-4.5-2.64-7.75c0-2.95,0.81-5.43,2.52-7.41c1.71-2.09,3.99-3.14,6.9-3.14
		C952.96,673.53,955.4,674.62,957.03,676.79z M945.51,677.88c-1.09,1.16-1.71,2.71-1.9,4.69h12.52c-0.39-4.3-2.52-6.44-6.32-6.44
		C948.03,676.13,946.6,676.71,945.51,677.88z"/>
	<path class="st0" d="M976.49,674v3.1c-1.01-0.31-2.02-0.43-2.99-0.43c-1.55,0-2.87,0.66-3.92,2.06c-1.09,1.32-1.59,2.91-1.59,4.77
		v10.62h-3.06v-20.05h3.06v3.49c0.54-1.16,1.24-2.09,2.09-2.75c1.05-0.85,2.25-1.28,3.64-1.28
		C974.83,673.53,975.76,673.69,976.49,674z"/>
	<path class="st0" d="M985.41,690.2c0.46,0.47,0.7,1.01,0.7,1.71c0,0.66-0.23,1.2-0.7,1.67s-1.05,0.7-1.67,0.7
		c-0.7,0-1.24-0.23-1.67-0.7c-0.47-0.47-0.7-1.01-0.7-1.67c0-0.7,0.23-1.24,0.7-1.71c0.43-0.47,0.97-0.7,1.67-0.7
		C984.37,689.51,984.95,689.74,985.41,690.2z"/>
	<path class="st0" d="M997.59,690.2c0.46,0.47,0.7,1.01,0.7,1.71c0,0.66-0.23,1.2-0.7,1.67s-1.05,0.7-1.67,0.7
		c-0.7,0-1.24-0.23-1.67-0.7c-0.47-0.47-0.7-1.01-0.7-1.67c0-0.7,0.23-1.24,0.7-1.71c0.43-0.47,0.97-0.7,1.67-0.7
		C996.54,689.51,997.13,689.74,997.59,690.2z"/>
	<path class="st0" d="M1009.77,690.2c0.46,0.47,0.7,1.01,0.7,1.71c0,0.66-0.23,1.2-0.7,1.67s-1.05,0.7-1.67,0.7
		c-0.7,0-1.24-0.23-1.67-0.7c-0.47-0.47-0.7-1.01-0.7-1.67c0-0.7,0.23-1.24,0.7-1.71c0.43-0.47,0.97-0.7,1.67-0.7
		C1008.72,689.51,1009.3,689.74,1009.77,690.2z"/>
</g>
<g>
	<g>
		
			<linearGradient id="SVGID_1_" gradientUnits="userSpaceOnUse" x1="-221.7248" y1="1756.6761" x2="-252.6686" y2="1783.6609" gradientTransform="matrix(0.7071 -0.7071 0.7071 0.7071 -593.5517 207.7469)">
			<stop  offset="0" style="stop-color:#88FFF6"/>
			<stop  offset="0.0285" style="stop-color:#87FDF4;stop-opacity:0.9968"/>
			<stop  offset="0.2198" style="stop-color:#84F7EE;stop-opacity:0.9509"/>
			<stop  offset="0.4802" style="stop-color:#7DE5DD;stop-opacity:0.8883"/>
			<stop  offset="0.485" style="stop-color:#7DE5DD;stop-opacity:0.8872"/>
			<stop  offset="0.5329" style="stop-color:#77DBD3;stop-opacity:0.8047"/>
			<stop  offset="0.6157" style="stop-color:#68BEB8;stop-opacity:0.662"/>
			<stop  offset="0.7236" style="stop-color:#4F918C;stop-opacity:0.4761"/>
			<stop  offset="0.8524" style="stop-color:#2C514E;stop-opacity:0.2543"/>
			<stop  offset="0.9974" style="stop-color:#010201;stop-opacity:4.487395e-03"/>
			<stop  offset="1" style="stop-color:#000000;stop-opacity:0"/>
		</linearGradient>
		<path class="st1" d="M515.04,1608.06l-11.27,11.27c-7.01-5.99-17.6-5.66-24.23,0.97s-6.95,17.21-0.96,24.23l-5.36,5.36
			c-8.93-9.97-8.61-25.36,0.97-34.94c7.84-7.84,19.55-9.48,29.02-4.94c0.04,0.02,0.07,0.04,0.11,0.05
			C507.14,1611.9,511.87,1611.23,515.04,1608.06z"/>
		
			<linearGradient id="SVGID_00000049917005490759637750000004232044861216722610_" gradientUnits="userSpaceOnUse" x1="1528.9058" y1="249.5733" x2="1497.9619" y2="276.558" gradientTransform="matrix(-0.7071 0.7071 -0.7071 -0.7071 1750.1113 754.5524)">
			<stop  offset="0" style="stop-color:#88FFF6"/>
			<stop  offset="0.0285" style="stop-color:#87FDF4;stop-opacity:0.9968"/>
			<stop  offset="0.2198" style="stop-color:#84F7EE;stop-opacity:0.9509"/>
			<stop  offset="0.4802" style="stop-color:#7DE5DD;stop-opacity:0.8883"/>
			<stop  offset="0.485" style="stop-color:#7DE5DD;stop-opacity:0.8872"/>
			<stop  offset="0.5329" style="stop-color:#77DBD3;stop-opacity:0.8047"/>
			<stop  offset="0.6157" style="stop-color:#68BEB8;stop-opacity:0.662"/>
			<stop  offset="0.7236" style="stop-color:#4F918C;stop-opacity:0.4761"/>
			<stop  offset="0.8524" style="stop-color:#2C514E;stop-opacity:0.2543"/>
			<stop  offset="0.9974" style="stop-color:#010201;stop-opacity:4.487395e-03"/>
			<stop  offset="1" style="stop-color:#000000;stop-opacity:0"/>
		</linearGradient>
		<path style="fill:url(#SVGID_00000049917005490759637750000004232044861216722610_);" d="M469.32,1657.8l11.27-11.27
			c7.01,5.99,17.6,5.66,24.23-0.97s6.95-17.21,0.96-24.23l5.36-5.36c8.93,9.97,8.61,25.36-0.97,34.94
			c-7.84,7.84-19.55,9.48-29.02,4.94c-0.04-0.02-0.07-0.04-0.11-0.05C477.21,1653.96,472.49,1654.63,469.32,1657.8z"/>
	</g>
	<path class="st0" d="M580.51,1657.99h-9.78l-21.29-20.78H536.9v20.78h-7.58v-50.12h25.87c11.25,0.33,16.74,5.13,17.39,14.42
		c0,8.48-4.65,13.29-13.94,14.42L580.51,1657.99z M536.9,1613.98v17.11h16.13c7.82,0,11.65-2.85,11.49-8.56
		c0-5.7-3.83-8.56-11.49-8.56H536.9V1613.98z"/>
	<path class="st0" d="M586.74,1657.99v-50.12h7.58v50.12H586.74z"/>
	<path class="st0" d="M635.95,1631.21v7.3h14.25c-2.49,8.45-10.39,14.27-19.51,13.9c-9.76-0.39-17.83-8.13-18.62-17.87
		c-0.93-11.48,8.15-21.11,19.43-21.11c7.65,0,14.63,4.5,17.78,11.48l6.65-3.01c-4.33-9.58-13.92-15.77-24.43-15.77
		c-14.96,0-27.09,12.32-26.79,27.34c0.28,14.29,11.97,25.97,26.26,26.25c13.43,0.26,24.82-9.26,26.98-22.43c0-0.01,0-0.01,0-0.02
		c0.18-1.13,0.26-2.27,0.27-3.41l0.03-2.64L635.95,1631.21L635.95,1631.21z"/>
</g>
<g>
	<g>
		
			<linearGradient id="SVGID_00000054984384393513658410000002791936896015369403_" gradientUnits="userSpaceOnUse" x1="795.3585" y1="836.8202" x2="632.8943" y2="978.4978" gradientTransform="matrix(0.7071 -0.7071 0.7071 0.7071 -593.5517 207.7469)">
			<stop  offset="0" style="stop-color:#88FFF6"/>
			<stop  offset="0.0285" style="stop-color:#87FDF4;stop-opacity:0.9968"/>
			<stop  offset="0.2198" style="stop-color:#84F7EE;stop-opacity:0.9509"/>
			<stop  offset="0.4802" style="stop-color:#7DE5DD;stop-opacity:0.8883"/>
			<stop  offset="0.485" style="stop-color:#7DE5DD;stop-opacity:0.8872"/>
			<stop  offset="0.5329" style="stop-color:#77DBD3;stop-opacity:0.8047"/>
			<stop  offset="0.6157" style="stop-color:#68BEB8;stop-opacity:0.662"/>
			<stop  offset="0.7236" style="stop-color:#4F918C;stop-opacity:0.4761"/>
			<stop  offset="0.8524" style="stop-color:#2C514E;stop-opacity:0.2543"/>
			<stop  offset="0.9974" style="stop-color:#010201;stop-opacity:4.487395e-03"/>
			<stop  offset="1" style="stop-color:#000000;stop-opacity:0"/>
		</linearGradient>
		<path style="fill:url(#SVGID_00000054984384393513658410000002791936896015369403_);" d="M682.52,244.28l-59.16,59.16
			c-36.82-31.43-92.4-29.74-127.21,5.07c-34.8,34.8-36.49,90.38-5.06,127.2l-28.15,28.15c-46.88-52.37-45.19-133.15,5.12-183.45
			c41.15-41.15,102.66-49.77,152.37-25.91c0.19,0.09,0.38,0.19,0.57,0.28C641.07,264.43,665.88,260.93,682.52,244.28z"/>
		
			<linearGradient id="SVGID_00000041291421981682851740000010452324528029671346_" gradientUnits="userSpaceOnUse" x1="667.3616" y1="1009.4519" x2="504.8972" y2="1151.1295" gradientTransform="matrix(-0.7071 0.7071 -0.7071 -0.7071 1750.1113 754.5524)">
			<stop  offset="0" style="stop-color:#88FFF6"/>
			<stop  offset="0.0285" style="stop-color:#87FDF4;stop-opacity:0.9968"/>
			<stop  offset="0.2198" style="stop-color:#84F7EE;stop-opacity:0.9509"/>
			<stop  offset="0.4802" style="stop-color:#7DE5DD;stop-opacity:0.8883"/>
			<stop  offset="0.485" style="stop-color:#7DE5DD;stop-opacity:0.8872"/>
			<stop  offset="0.5329" style="stop-color:#77DBD3;stop-opacity:0.8047"/>
			<stop  offset="0.6157" style="stop-color:#68BEB8;stop-opacity:0.662"/>
			<stop  offset="0.7236" style="stop-color:#4F918C;stop-opacity:0.4761"/>
			<stop  offset="0.8524" style="stop-color:#2C514E;stop-opacity:0.2543"/>
			<stop  offset="0.9974" style="stop-color:#010201;stop-opacity:4.487395e-03"/>
			<stop  offset="1" style="stop-color:#000000;stop-opacity:0"/>
		</linearGradient>
		<path style="fill:url(#SVGID_00000041291421981682851740000010452324528029671346_);" d="M442.48,505.42l59.16-59.16
			c36.82,31.43,92.4,29.74,127.21-5.07c34.8-34.8,36.49-90.38,5.06-127.2l28.15-28.15c46.88,52.37,45.19,133.15-5.12,183.45
			c-41.15,41.15-102.66,49.77-152.37,25.91c-0.19-0.09-0.38-0.19-0.57-0.28C483.93,485.27,459.12,488.78,442.48,505.42z"/>
	</g>
	<g>
		<path class="st5" d="M602.88,334.47L602.88,334.47c-11.24-11.24-29.47-11.24-40.71,0l-20.35,20.35l40.71,40.71l20.35-20.35
			C614.12,363.94,614.12,345.71,602.88,334.47z"/>
		<path class="st6" d="M521.49,415.86L521.49,415.86c11.24,11.24,29.47,11.24,40.71,0l20.35-20.35l-40.71-40.71l-20.35,20.35
			C510.25,386.39,510.25,404.62,521.49,415.86z"/>
		<path class="st7" d="M602.88,334.47L602.88,334.47c-11.24-11.24-29.47-11.24-40.71,0l-20.35,20.35l40.71,40.71l20.35-20.35
			C614.12,363.94,614.12,345.71,602.88,334.47z"/>
		<g>
			<path class="st5" d="M598.55,331.36L598.55,331.36c-1.33-1.33-2.72-2.54-4.16-3.63c9.89,12.99,10.36,30,0.39,39.97l-20.05,20.05
				l7.79,7.79l20.05-20.05C613.65,364.41,611.85,344.66,598.55,331.36z"/>
		</g>
		<g>
			<path class="st8" d="M574.76,387.71l-20.69,20.69c-8.31,8.31-21.19,9.77-32.71,4.82c13.21,11.19,31.58,11.9,42.33,1.15
				l18.86-18.86L574.76,387.71z"/>
		</g>
		<line class="st9" x1="541.82" y1="354.83" x2="582.53" y2="395.54"/>
		<path class="st9" d="M521.49,415.86L521.49,415.86c-11.24-11.24-11.24-29.47,0-40.71l41.3-41.3c11.24-11.24,29.47-11.24,40.71,0
			l0,0c11.24,11.24,11.24,29.47,0,40.71l-41.3,41.3C550.96,427.1,532.74,427.1,521.49,415.86z"/>
		<path class="st7" d="M524.1,393.6c-0.01,0.15-0.03,0.3-0.04,0.46c-0.05,1.15-0.2,2.3,0.09,3.45c0.37,1.06,0.52,2.18,0.71,3.28
			c0.12,0.69-0.42,1.38-1.08,1.52c-0.74,0.16-1.1-0.36-1.27-0.9c-0.53-1.74-0.96-3.49-0.76-5.37c0.1-0.98-0.16-2.01,0.08-3.02
			c0.09-0.38,0.17-0.77,0.38-1.1c0.29-0.45,0.69-0.63,1.21-0.47c0.5,0.15,0.84,0.45,0.74,1.03
			C524.09,392.84,524.4,393.23,524.1,393.6z"/>
		<path class="st10" d="M527.69,385.66c0.04,0.36-0.12,0.55-0.27,0.72c-0.55,0.59-1.11,1.18-1.68,1.75
			c-0.49,0.49-0.89,0.13-1.3-0.16c-0.47-0.33-0.48-0.72-0.2-1.15c0.53-0.79,1.25-1.4,1.91-2.06c0.19-0.19,0.46-0.3,0.71-0.09
			C527.22,384.96,527.59,385.26,527.69,385.66z"/>
		<path class="st10" d="M529.09,408.03c-0.13,0.38-0.29,0.86-0.81,1.06c-0.46,0.17-0.8-0.12-1.1-0.41c-0.6-0.58-1.21-1.14-1.72-1.8
			c-0.41-0.52-0.37-0.97,0.11-1.44c0.46-0.44,0.89-0.47,1.35-0.03c0.65,0.63,1.31,1.26,1.98,1.88
			C529.09,407.48,529.15,407.68,529.09,408.03z"/>
	</g>
</g>
</svg>
