<?xml version="1.0" encoding="utf-8"?>
<!-- Generator: Adobe Illustrator 27.5.0, SVG Export Plug-In . SVG Version: 6.00 Build 0)  -->
<svg version="1.1" id="图层_1" xmlns="http://www.w3.org/2000/svg" xmlns:xlink="http://www.w3.org/1999/xlink" x="0px" y="0px"
	 viewBox="0 0 1920 1080" style="enable-background:new 0 0 1920 1080;" xml:space="preserve">
<style type="text/css">
	.st0{fill:#88FFF6;}
	.st1{fill:url(#SVGID_1_);}
	.st2{fill:url(#SVGID_00000100366502850553338140000010984949158654315911_);}
	.st3{fill:url(#SVGID_00000033334929193555776210000011530823382450512289_);}
	.st4{fill:url(#SVGID_00000042016029976683069340000010477969981152753855_);}
	.st5{fill:#BAD0D1;}
	.st6{fill:#52D593;}
	.st7{fill:#FFFFFF;}
	.st8{fill:#1C8862;}
	.st9{fill:none;stroke:#174542;stroke-width:3.431;stroke-miterlimit:10;}
	.st10{fill:#FEFFFE;}
</style>
<rect x="-149.64" width="2218.36" height="1080"/>
<g>
	<path class="st0" d="M713.43,381.09v1.57h-5.59v14.26h-1.8v-14.26h-5.59v-1.57H713.43z"/>
	<path class="st0" d="M718.06,380.77v6.56c0.4-0.73,0.93-1.29,1.6-1.66c0.62-0.35,1.31-0.53,2.08-0.53c1.33,0,2.37,0.38,3.08,1.18
		c0.71,0.78,1.06,1.9,1.06,3.37v7.23h-1.77v-6.96c0-1.06-0.27-1.89-0.75-2.46c-0.53-0.58-1.26-0.86-2.22-0.86
		c-0.89,0-1.62,0.35-2.2,1.06c-0.6,0.71-0.89,1.62-0.89,2.68v6.54h-1.77v-16.14L718.06,380.77L718.06,380.77L718.06,380.77z"/>
	<path class="st0" d="M738.62,387.01c0.84,1.11,1.29,2.68,1.33,4.68h-9.05c0.09,1.29,0.42,2.28,1.04,2.99
		c0.62,0.71,1.49,1.06,2.57,1.06c0.93,0,1.71-0.25,2.28-0.71c0.49-0.4,0.86-0.99,1.16-1.8h1.77c-0.26,1.11-0.78,2-1.55,2.7
		c-0.95,0.84-2.17,1.29-3.66,1.29c-1.64,0-2.97-0.55-3.95-1.62c-1.02-1.11-1.51-2.57-1.51-4.43c0-1.69,0.46-3.11,1.44-4.24
		c0.98-1.2,2.28-1.8,3.95-1.8C736.29,385.14,737.69,385.77,738.62,387.01z M732.03,387.63c-0.62,0.66-0.98,1.55-1.09,2.68h7.16
		c-0.22-2.46-1.44-3.68-3.61-3.68C733.47,386.63,732.65,386.96,732.03,387.63z"/>
	<path class="st0" d="M761.01,386.98c0.86,1.11,1.31,2.5,1.31,4.24c0,1.69-0.45,3.08-1.29,4.19c-0.93,1.2-2.2,1.82-3.84,1.82
		c-1.64,0-2.9-0.8-3.79-2.4v6.47h-1.77v-15.85h1.66v1.89c0.82-1.46,2.08-2.2,3.81-2.2C758.75,385.14,760.06,385.74,761.01,386.98z
		 M754.21,387.96c-0.58,0.8-0.86,1.86-0.86,3.15v0.22c0,1.33,0.31,2.4,0.98,3.21c0.62,0.8,1.44,1.22,2.5,1.22
		c1.24,0,2.17-0.45,2.81-1.29c0.58-0.8,0.86-1.89,0.86-3.26c0-1.36-0.29-2.44-0.82-3.24c-0.64-0.93-1.57-1.37-2.8-1.37
		C755.73,386.61,754.82,387.05,754.21,387.96z"/>
	<path class="st0" d="M774.36,386.43c0.66,0.75,1.02,1.8,1.02,3.13v7.36h-1.66v-1.93c-0.45,0.62-1.04,1.13-1.75,1.53
		c-0.84,0.46-1.8,0.71-2.86,0.71c-1.16,0-2.06-0.29-2.75-0.86c-0.71-0.6-1.06-1.37-1.06-2.3c0-1.31,0.51-2.28,1.57-2.95
		c0.93-0.62,2.26-0.95,3.99-0.98l2.75-0.05v-0.6c0-1.93-0.99-2.88-2.99-2.88c-0.84,0-1.53,0.15-2.06,0.51
		c-0.6,0.35-0.98,0.91-1.16,1.64l-1.75-0.13c0.25-1.2,0.84-2.1,1.77-2.68c0.84-0.53,1.93-0.8,3.31-0.8
		C772.37,385.14,773.56,385.57,774.36,386.43z M770.97,391.46c-2.57,0.05-3.86,0.89-3.86,2.55c0,0.53,0.2,0.95,0.64,1.31
		c0.45,0.33,1.02,0.51,1.73,0.51c1.09,0,2.04-0.35,2.88-1.06c0.82-0.69,1.24-1.49,1.24-2.37v-0.98L770.97,391.46z"/>
	<path class="st0" d="M787.82,387.43v-1.97h1.77v10.66c0,3.66-1.75,5.5-5.23,5.5c-1.55,0-2.75-0.31-3.55-0.93
		c-0.82-0.62-1.33-1.55-1.53-2.8h1.77c0.13,0.78,0.46,1.36,0.98,1.71c0.51,0.38,1.29,0.58,2.33,0.58c2.3,0,3.46-1.29,3.46-3.81
		v-2.02c-0.84,1.53-2.13,2.3-3.86,2.3c-1.6,0-2.86-0.55-3.79-1.64c-0.93-1.06-1.37-2.42-1.37-4.08c0-1.69,0.45-3.04,1.37-4.1
		c0.93-1.13,2.2-1.69,3.79-1.69C785.69,385.14,786.98,385.9,787.82,387.43z M781.55,387.85c-0.62,0.75-0.93,1.8-0.93,3.08
		c0,1.2,0.27,2.2,0.82,2.95c0.62,0.84,1.53,1.29,2.77,1.29c1.16,0,2.04-0.4,2.7-1.2c0.62-0.78,0.93-1.8,0.93-3.04
		c0-1.29-0.31-2.33-0.93-3.08c-0.66-0.84-1.55-1.24-2.68-1.24C783.07,386.61,782.19,387.01,781.55,387.85z"/>
	<path class="st0" d="M802.34,387.01c0.84,1.11,1.29,2.68,1.33,4.68h-9.05c0.09,1.29,0.42,2.28,1.04,2.99
		c0.62,0.71,1.49,1.06,2.57,1.06c0.93,0,1.71-0.25,2.28-0.71c0.49-0.4,0.86-0.99,1.16-1.8h1.77c-0.26,1.11-0.78,2-1.55,2.7
		c-0.95,0.84-2.17,1.29-3.66,1.29c-1.64,0-2.97-0.55-3.95-1.62c-1.02-1.11-1.51-2.57-1.51-4.43c0-1.69,0.46-3.11,1.44-4.24
		c0.98-1.2,2.28-1.8,3.95-1.8C800.02,385.14,801.41,385.77,802.34,387.01z M795.76,387.63c-0.62,0.66-0.98,1.55-1.09,2.68h7.16
		c-0.22-2.46-1.44-3.68-3.61-3.68C797.2,386.63,796.38,386.96,795.76,387.63z"/>
	<path class="st0" d="M817.78,381.51c0.27,0.22,0.4,0.53,0.4,0.93c0,0.38-0.13,0.69-0.4,0.95c-0.26,0.25-0.58,0.38-0.95,0.38
		c-0.38,0-0.69-0.13-0.95-0.38c-0.27-0.27-0.38-0.58-0.38-0.95c0-0.4,0.11-0.71,0.38-0.93c0.26-0.27,0.58-0.38,0.95-0.38
		C817.2,381.13,817.51,381.24,817.78,381.51z M817.71,385.46v11.47h-1.77v-11.47H817.71z"/>
	<path class="st0" d="M830.9,388.71h-1.73c-0.15-0.71-0.45-1.24-0.89-1.55c-0.49-0.35-1.2-0.53-2.1-0.53c-0.8,0-1.42,0.13-1.86,0.45
		c-0.49,0.29-0.73,0.69-0.73,1.2c0,0.49,0.31,0.91,0.98,1.24c0.42,0.2,1.22,0.45,2.37,0.75c1.37,0.33,2.35,0.69,2.95,1.06
		c0.91,0.58,1.37,1.35,1.37,2.35c0,2.35-1.62,3.55-4.85,3.55c-3.01,0-4.65-1.33-4.92-3.97h1.73c0.13,0.91,0.46,1.55,0.95,1.95
		c0.49,0.35,1.22,0.53,2.2,0.53c2.04,0,3.08-0.66,3.08-1.95c0-0.64-0.38-1.13-1.09-1.49c-0.38-0.18-1.2-0.42-2.44-0.73
		c-1.36-0.33-2.3-0.66-2.84-1.02c-0.89-0.53-1.31-1.26-1.31-2.24c0-0.98,0.42-1.73,1.29-2.3c0.8-0.58,1.86-0.86,3.15-0.86
		C829.04,385.14,830.59,386.32,830.9,388.71z"/>
	<path class="st0" d="M844.72,385.46v7c0,1.09,0.22,1.9,0.69,2.44c0.46,0.53,1.22,0.82,2.26,0.82c0.75,0,1.44-0.31,2.04-0.89
		c0.62-0.62,1-1.42,1.13-2.4v-6.98h1.77v11.47h-1.77v-1.77c-0.93,1.37-2.17,2.09-3.72,2.09c-2.8,0-4.17-1.57-4.17-4.68v-7.1
		L844.72,385.46L844.72,385.46L844.72,385.46z"/>
	<path class="st0" d="M865.85,386.98c0.86,1.11,1.31,2.5,1.31,4.24c0,1.69-0.45,3.08-1.29,4.19c-0.93,1.2-2.2,1.82-3.84,1.82
		c-1.64,0-2.9-0.8-3.79-2.4v6.47h-1.77v-15.85h1.66v1.89c0.82-1.46,2.08-2.2,3.81-2.2C863.59,385.14,864.89,385.74,865.85,386.98z
		 M859.04,387.96c-0.58,0.8-0.86,1.86-0.86,3.15v0.22c0,1.33,0.31,2.4,0.98,3.21c0.62,0.8,1.44,1.22,2.5,1.22
		c1.24,0,2.17-0.45,2.81-1.29c0.58-0.8,0.86-1.89,0.86-3.26c0-1.36-0.29-2.44-0.82-3.24c-0.64-0.93-1.57-1.37-2.8-1.37
		C860.57,386.61,859.66,387.05,859.04,387.96z"/>
	<path class="st0" d="M880.81,380.77v16.14h-1.66v-1.89c-0.8,1.46-2.08,2.2-3.81,2.2c-1.69,0-2.99-0.62-3.92-1.82
		c-0.86-1.11-1.29-2.53-1.29-4.25c0-1.69,0.42-3.06,1.29-4.17c0.93-1.24,2.2-1.84,3.84-1.84c1.64,0,2.9,0.8,3.79,2.42v-6.78
		L880.81,380.77L880.81,380.77z M872.79,387.94c-0.58,0.78-0.84,1.84-0.84,3.21s0.27,2.46,0.82,3.26c0.62,0.89,1.55,1.36,2.8,1.36
		c1.16,0,2.04-0.45,2.68-1.33c0.55-0.8,0.84-1.84,0.84-3.13v-0.22c0-1.33-0.33-2.42-0.95-3.24c-0.64-0.84-1.49-1.24-2.5-1.24
		C874.36,386.61,873.41,387.05,872.79,387.94z"/>
	<path class="st0" d="M893.3,386.43c0.66,0.75,1.02,1.8,1.02,3.13v7.36h-1.66v-1.93c-0.45,0.62-1.04,1.13-1.75,1.53
		c-0.84,0.46-1.8,0.71-2.86,0.71c-1.16,0-2.06-0.29-2.75-0.86c-0.71-0.6-1.06-1.37-1.06-2.3c0-1.31,0.51-2.28,1.57-2.95
		c0.93-0.62,2.26-0.95,3.99-0.98l2.75-0.05v-0.6c0-1.93-0.99-2.88-2.99-2.88c-0.84,0-1.53,0.15-2.06,0.51
		c-0.6,0.35-0.98,0.91-1.16,1.64l-1.75-0.13c0.25-1.2,0.84-2.1,1.77-2.68c0.84-0.53,1.93-0.8,3.31-0.8
		C891.3,385.14,892.5,385.57,893.3,386.43z M889.91,391.46c-2.57,0.05-3.86,0.89-3.86,2.55c0,0.53,0.2,0.95,0.64,1.31
		c0.45,0.33,1.02,0.51,1.73,0.51c1.09,0,2.04-0.35,2.88-1.06c0.82-0.69,1.24-1.49,1.24-2.37v-0.98L889.91,391.46z"/>
	<path class="st0" d="M901.24,385.46h2.84v1.49h-2.84v7.3c0,0.42,0.07,0.73,0.25,0.91c0.15,0.18,0.45,0.29,0.84,0.29h1.46v1.49
		h-1.73c-0.93,0-1.62-0.25-2.02-0.73c-0.38-0.45-0.55-1.09-0.55-1.95v-7.3h-2.3v-1.49h2.3v-2.97l1.75-0.73V385.46z"/>
	<path class="st0" d="M909.58,381.51c0.27,0.22,0.4,0.53,0.4,0.93c0,0.38-0.13,0.69-0.4,0.95c-0.26,0.25-0.58,0.38-0.95,0.38
		c-0.38,0-0.69-0.13-0.95-0.38c-0.27-0.27-0.38-0.58-0.38-0.95c0-0.4,0.11-0.71,0.38-0.93c0.26-0.27,0.58-0.38,0.95-0.38
		C909,381.13,909.31,381.24,909.58,381.51z M909.51,385.46v11.47h-1.77v-11.47H909.51z"/>
	<path class="st0" d="M923.59,389.87v7.05h-1.77V390c0-2.24-1.02-3.35-3.01-3.35c-0.8,0-1.49,0.29-2.06,0.86
		c-0.62,0.62-0.95,1.44-1.02,2.48v6.92h-1.77v-11.47h1.77v1.69c0.4-0.64,0.91-1.13,1.53-1.46c0.62-0.35,1.31-0.53,2.06-0.53
		C922.15,385.14,923.59,386.72,923.59,389.87z"/>
	<path class="st0" d="M936.03,387.43v-1.97h1.77v10.66c0,3.66-1.75,5.5-5.23,5.5c-1.55,0-2.75-0.31-3.55-0.93
		c-0.82-0.62-1.33-1.55-1.53-2.8h1.77c0.13,0.78,0.46,1.36,0.98,1.71c0.51,0.38,1.29,0.58,2.33,0.58c2.3,0,3.46-1.29,3.46-3.81
		v-2.02c-0.84,1.53-2.13,2.3-3.86,2.3c-1.6,0-2.86-0.55-3.79-1.64c-0.93-1.06-1.37-2.42-1.37-4.08c0-1.69,0.45-3.04,1.37-4.1
		c0.93-1.13,2.2-1.69,3.79-1.69C933.9,385.14,935.18,385.9,936.03,387.43z M929.75,387.85c-0.62,0.75-0.93,1.8-0.93,3.08
		c0,1.2,0.27,2.2,0.82,2.95c0.62,0.84,1.53,1.29,2.77,1.29c1.16,0,2.04-0.4,2.7-1.2c0.62-0.78,0.93-1.8,0.93-3.04
		c0-1.29-0.31-2.33-0.93-3.08c-0.66-0.84-1.55-1.24-2.68-1.24C931.28,386.61,930.4,387.01,929.75,387.85z"/>
	<path class="st0" d="M944.43,394.9c0.29,0.4,0.45,0.91,0.45,1.55c0,0.98-0.29,1.84-0.86,2.6c-0.58,0.71-1.36,1.2-2.3,1.44v-1.09
		c0.58-0.2,1.06-0.53,1.42-0.98c0.31-0.46,0.49-0.95,0.49-1.49c-0.11,0.05-0.26,0.09-0.49,0.09c-0.38,0-0.69-0.13-0.95-0.4
		c-0.27-0.27-0.4-0.6-0.4-0.98c0-0.42,0.13-0.75,0.42-0.99c0.25-0.27,0.58-0.38,1.02-0.38C943.7,394.28,944.12,394.48,944.43,394.9z
		"/>
	<path class="st0" d="M966.49,386.98c0.86,1.11,1.31,2.5,1.31,4.24c0,1.69-0.45,3.08-1.29,4.19c-0.93,1.2-2.2,1.82-3.84,1.82
		c-1.64,0-2.9-0.8-3.79-2.4v6.47h-1.77v-15.85h1.66v1.89c0.82-1.46,2.08-2.2,3.81-2.2C964.23,385.14,965.54,385.74,966.49,386.98z
		 M959.69,387.96c-0.58,0.8-0.86,1.86-0.86,3.15v0.22c0,1.33,0.31,2.4,0.98,3.21c0.62,0.8,1.44,1.22,2.5,1.22
		c1.24,0,2.17-0.45,2.81-1.29c0.58-0.8,0.86-1.89,0.86-3.26c0-1.36-0.29-2.44-0.82-3.24c-0.64-0.93-1.57-1.37-2.8-1.37
		C961.22,386.61,960.31,387.05,959.69,387.96z"/>
	<path class="st0" d="M973.32,380.77v16.14h-1.75v-16.14H973.32z"/>
	<path class="st0" d="M986.43,387.01c0.84,1.11,1.29,2.68,1.33,4.68h-9.05c0.09,1.29,0.42,2.28,1.04,2.99
		c0.62,0.71,1.49,1.06,2.57,1.06c0.93,0,1.71-0.25,2.28-0.71c0.49-0.4,0.86-0.99,1.16-1.8h1.77c-0.27,1.11-0.78,2-1.55,2.7
		c-0.95,0.84-2.17,1.29-3.66,1.29c-1.64,0-2.97-0.55-3.95-1.62c-1.02-1.11-1.51-2.57-1.51-4.43c0-1.69,0.46-3.11,1.44-4.24
		c0.98-1.2,2.28-1.8,3.95-1.8C984.1,385.14,985.5,385.77,986.43,387.01z M979.84,387.63c-0.62,0.66-0.98,1.55-1.09,2.68h7.16
		c-0.22-2.46-1.44-3.68-3.61-3.68C981.28,386.63,980.46,386.96,979.84,387.63z"/>
	<path class="st0" d="M999.58,386.43c0.66,0.75,1.02,1.8,1.02,3.13v7.36h-1.66v-1.93c-0.45,0.62-1.04,1.13-1.75,1.53
		c-0.84,0.46-1.8,0.71-2.86,0.71c-1.16,0-2.06-0.29-2.75-0.86c-0.71-0.6-1.06-1.37-1.06-2.3c0-1.31,0.51-2.28,1.57-2.95
		c0.93-0.62,2.26-0.95,3.99-0.98l2.75-0.05v-0.6c0-1.93-0.99-2.88-2.99-2.88c-0.84,0-1.53,0.15-2.06,0.51
		c-0.6,0.35-0.98,0.91-1.16,1.64l-1.75-0.13c0.25-1.2,0.84-2.1,1.77-2.68c0.84-0.53,1.93-0.8,3.31-0.8
		C997.58,385.14,998.78,385.57,999.58,386.43z M996.19,391.46c-2.57,0.05-3.86,0.89-3.86,2.55c0,0.53,0.2,0.95,0.64,1.31
		c0.45,0.33,1.02,0.51,1.73,0.51c1.09,0,2.04-0.35,2.88-1.06c0.82-0.69,1.24-1.49,1.24-2.37v-0.98L996.19,391.46z"/>
	<path class="st0" d="M1013.22,388.71h-1.73c-0.15-0.71-0.45-1.24-0.89-1.55c-0.49-0.35-1.2-0.53-2.1-0.53
		c-0.8,0-1.42,0.13-1.86,0.45c-0.49,0.29-0.73,0.69-0.73,1.2c0,0.49,0.31,0.91,0.98,1.24c0.42,0.2,1.22,0.45,2.37,0.75
		c1.37,0.33,2.35,0.69,2.95,1.06c0.91,0.58,1.37,1.35,1.37,2.35c0,2.35-1.62,3.55-4.85,3.55c-3.01,0-4.65-1.33-4.92-3.97h1.73
		c0.13,0.91,0.46,1.55,0.95,1.95c0.49,0.35,1.22,0.53,2.2,0.53c2.04,0,3.08-0.66,3.08-1.95c0-0.64-0.38-1.13-1.09-1.49
		c-0.38-0.18-1.2-0.42-2.44-0.73c-1.36-0.33-2.3-0.66-2.84-1.02c-0.89-0.53-1.31-1.26-1.31-2.24c0-0.98,0.42-1.73,1.29-2.3
		c0.8-0.58,1.86-0.86,3.15-0.86C1011.35,385.14,1012.9,386.32,1013.22,388.71z"/>
	<path class="st0" d="M1025.65,387.01c0.84,1.11,1.29,2.68,1.33,4.68h-9.05c0.09,1.29,0.42,2.28,1.04,2.99
		c0.62,0.71,1.49,1.06,2.57,1.06c0.93,0,1.71-0.25,2.28-0.71c0.49-0.4,0.86-0.99,1.16-1.8h1.77c-0.27,1.11-0.78,2-1.55,2.7
		c-0.95,0.84-2.17,1.29-3.66,1.29c-1.64,0-2.97-0.55-3.95-1.62c-1.02-1.11-1.51-2.57-1.51-4.43c0-1.69,0.46-3.11,1.44-4.24
		c0.98-1.2,2.28-1.8,3.95-1.8C1023.33,385.14,1024.72,385.77,1025.65,387.01z M1019.07,387.63c-0.62,0.66-0.98,1.55-1.09,2.68h7.16
		c-0.22-2.46-1.44-3.68-3.61-3.68C1020.51,386.63,1019.69,386.96,1019.07,387.63z"/>
	<path class="st0" d="M1041.73,385.46h2.84v1.49h-2.84v7.3c0,0.42,0.07,0.73,0.25,0.91c0.15,0.18,0.45,0.29,0.84,0.29h1.46v1.49
		h-1.73c-0.93,0-1.62-0.25-2.02-0.73c-0.38-0.45-0.55-1.09-0.55-1.95v-7.3h-2.3v-1.49h2.3v-2.97l1.75-0.73V385.46L1041.73,385.46z"
		/>
	<path class="st0" d="M1054.26,385.41v1.77c-0.58-0.18-1.16-0.25-1.71-0.25c-0.89,0-1.64,0.38-2.24,1.18
		c-0.62,0.75-0.91,1.66-0.91,2.73v6.07h-1.75v-11.47h1.75v2c0.31-0.66,0.71-1.2,1.2-1.57c0.6-0.49,1.29-0.73,2.08-0.73
		C1053.3,385.14,1053.84,385.23,1054.26,385.41z"/>
	<path class="st0" d="M1057.52,385.46l3.51,9.05l3.39-9.05h1.95l-6.27,15.85h-1.93l1.97-4.65l-4.55-11.2L1057.52,385.46
		L1057.52,385.46z"/>
	<path class="st0" d="M1086.08,386.43c0.66,0.75,1.02,1.8,1.02,3.13v7.36h-1.66v-1.93c-0.45,0.62-1.04,1.13-1.75,1.53
		c-0.84,0.46-1.8,0.71-2.86,0.71c-1.16,0-2.06-0.29-2.75-0.86c-0.71-0.6-1.06-1.37-1.06-2.3c0-1.31,0.51-2.28,1.57-2.95
		c0.93-0.62,2.26-0.95,3.99-0.98l2.75-0.05v-0.6c0-1.93-0.99-2.88-2.99-2.88c-0.84,0-1.53,0.15-2.06,0.51
		c-0.6,0.35-0.98,0.91-1.16,1.64l-1.75-0.13c0.25-1.2,0.84-2.1,1.77-2.68c0.84-0.53,1.93-0.8,3.31-0.8
		C1084.08,385.14,1085.28,385.57,1086.08,386.43z M1082.68,391.46c-2.57,0.05-3.86,0.89-3.86,2.55c0,0.53,0.2,0.95,0.64,1.31
		c0.45,0.33,1.02,0.51,1.73,0.51c1.09,0,2.04-0.35,2.88-1.06c0.82-0.69,1.24-1.49,1.24-2.37v-0.98L1082.68,391.46z"/>
	<path class="st0" d="M1099.53,387.43v-1.97h1.77v10.66c0,3.66-1.75,5.5-5.23,5.5c-1.55,0-2.75-0.31-3.55-0.93
		c-0.82-0.62-1.33-1.55-1.53-2.8h1.77c0.13,0.78,0.46,1.36,0.98,1.71c0.51,0.38,1.29,0.58,2.33,0.58c2.3,0,3.46-1.29,3.46-3.81
		v-2.02c-0.84,1.53-2.13,2.3-3.86,2.3c-1.6,0-2.86-0.55-3.79-1.64c-0.93-1.06-1.37-2.42-1.37-4.08c0-1.69,0.45-3.04,1.37-4.1
		c0.93-1.13,2.2-1.69,3.79-1.69C1097.41,385.14,1098.69,385.9,1099.53,387.43z M1093.26,387.85c-0.62,0.75-0.93,1.8-0.93,3.08
		c0,1.2,0.27,2.2,0.82,2.95c0.62,0.84,1.53,1.29,2.77,1.29c1.16,0,2.04-0.4,2.7-1.2c0.62-0.78,0.93-1.8,0.93-3.04
		c0-1.29-0.31-2.33-0.93-3.08c-0.66-0.84-1.55-1.24-2.68-1.24C1094.79,386.61,1093.9,387.01,1093.26,387.85z"/>
	<path class="st0" d="M1113.79,386.43c0.66,0.75,1.02,1.8,1.02,3.13v7.36h-1.66v-1.93c-0.45,0.62-1.04,1.13-1.75,1.53
		c-0.84,0.46-1.8,0.71-2.86,0.71c-1.16,0-2.06-0.29-2.75-0.86c-0.71-0.6-1.06-1.37-1.06-2.3c0-1.31,0.51-2.28,1.57-2.95
		c0.93-0.62,2.26-0.95,3.99-0.98l2.75-0.05v-0.6c0-1.93-0.99-2.88-2.99-2.88c-0.84,0-1.53,0.15-2.06,0.51
		c-0.6,0.35-0.98,0.91-1.16,1.64l-1.75-0.13c0.25-1.2,0.84-2.1,1.77-2.68c0.84-0.53,1.93-0.8,3.31-0.8
		C1111.8,385.14,1112.99,385.57,1113.79,386.43z M1110.4,391.46c-2.57,0.05-3.86,0.89-3.86,2.55c0,0.53,0.2,0.95,0.64,1.31
		c0.45,0.33,1.02,0.51,1.73,0.51c1.09,0,2.04-0.35,2.88-1.06c0.82-0.69,1.24-1.49,1.24-2.37v-0.98L1110.4,391.46z"/>
	<path class="st0" d="M1121.09,381.51c0.27,0.22,0.4,0.53,0.4,0.93c0,0.38-0.13,0.69-0.4,0.95c-0.26,0.25-0.58,0.38-0.95,0.38
		c-0.38,0-0.69-0.13-0.95-0.38c-0.27-0.27-0.38-0.58-0.38-0.95c0-0.4,0.11-0.71,0.38-0.93c0.26-0.27,0.58-0.38,0.95-0.38
		C1120.51,381.13,1120.82,381.24,1121.09,381.51z M1121.02,385.46v11.47h-1.77v-11.47H1121.02z"/>
	<path class="st0" d="M1135.1,389.87v7.05h-1.77V390c0-2.24-1.02-3.35-3.01-3.35c-0.8,0-1.49,0.29-2.06,0.86
		c-0.62,0.62-0.95,1.44-1.02,2.48v6.92h-1.77v-11.47h1.77v1.69c0.4-0.64,0.91-1.13,1.53-1.46c0.62-0.35,1.31-0.53,2.06-0.53
		C1133.66,385.14,1135.1,386.72,1135.1,389.87z"/>
	<path class="st0" d="M1149.56,380.77v16.14h-1.75v-16.14H1149.56z"/>
	<path class="st0" d="M1162.39,386.43c0.66,0.75,1.02,1.8,1.02,3.13v7.36h-1.66v-1.93c-0.45,0.62-1.04,1.13-1.75,1.53
		c-0.84,0.46-1.8,0.71-2.86,0.71c-1.16,0-2.06-0.29-2.75-0.86c-0.71-0.6-1.06-1.37-1.06-2.3c0-1.31,0.51-2.28,1.57-2.95
		c0.93-0.62,2.26-0.95,3.99-0.98l2.75-0.05v-0.6c0-1.93-0.99-2.88-2.99-2.88c-0.84,0-1.53,0.15-2.06,0.51
		c-0.6,0.35-0.98,0.91-1.16,1.64l-1.75-0.13c0.25-1.2,0.84-2.1,1.77-2.68c0.84-0.53,1.93-0.8,3.31-0.8
		C1160.4,385.14,1161.6,385.57,1162.39,386.43z M1159,391.46c-2.57,0.05-3.86,0.89-3.86,2.55c0,0.53,0.2,0.95,0.64,1.31
		c0.45,0.33,1.02,0.51,1.73,0.51c1.09,0,2.04-0.35,2.88-1.06c0.82-0.69,1.24-1.49,1.24-2.37v-0.98L1159,391.46z"/>
	<path class="st0" d="M1170.34,385.46h2.84v1.49h-2.84v7.3c0,0.42,0.07,0.73,0.25,0.91c0.15,0.18,0.45,0.29,0.84,0.29h1.46v1.49
		h-1.73c-0.93,0-1.62-0.25-2.02-0.73c-0.38-0.45-0.55-1.09-0.55-1.95v-7.3h-2.3v-1.49h2.3v-2.97l1.75-0.73L1170.34,385.46
		L1170.34,385.46z"/>
	<path class="st0" d="M1185.15,387.01c0.84,1.11,1.29,2.68,1.33,4.68h-9.05c0.09,1.29,0.42,2.28,1.04,2.99
		c0.62,0.71,1.49,1.06,2.57,1.06c0.93,0,1.71-0.25,2.28-0.71c0.49-0.4,0.86-0.99,1.16-1.8h1.77c-0.27,1.11-0.78,2-1.55,2.7
		c-0.95,0.84-2.17,1.29-3.66,1.29c-1.64,0-2.97-0.55-3.95-1.62c-1.02-1.11-1.51-2.57-1.51-4.43c0-1.69,0.46-3.11,1.44-4.24
		c0.98-1.2,2.28-1.8,3.95-1.8C1182.82,385.14,1184.22,385.77,1185.15,387.01z M1178.56,387.63c-0.62,0.66-0.98,1.55-1.09,2.68h7.16
		c-0.22-2.46-1.44-3.68-3.61-3.68C1180,386.63,1179.18,386.96,1178.56,387.63z"/>
	<path class="st0" d="M1196.27,385.41v1.77c-0.58-0.18-1.16-0.25-1.71-0.25c-0.89,0-1.64,0.38-2.24,1.18
		c-0.62,0.75-0.91,1.66-0.91,2.73v6.07h-1.75v-11.47h1.75v2c0.31-0.66,0.71-1.2,1.2-1.57c0.6-0.49,1.29-0.73,2.08-0.73
		C1195.33,385.14,1195.86,385.23,1196.27,385.41z"/>
	<path class="st0" d="M1201.38,394.68c0.26,0.27,0.4,0.58,0.4,0.98c0,0.38-0.13,0.69-0.4,0.95s-0.6,0.4-0.95,0.4
		c-0.4,0-0.71-0.13-0.95-0.4c-0.27-0.27-0.4-0.58-0.4-0.95c0-0.4,0.13-0.71,0.4-0.98c0.25-0.27,0.55-0.4,0.95-0.4
		C1200.78,394.28,1201.11,394.41,1201.38,394.68z"/>
	<path class="st0" d="M1208.34,394.68c0.26,0.27,0.4,0.58,0.4,0.98c0,0.38-0.13,0.69-0.4,0.95s-0.6,0.4-0.95,0.4
		c-0.4,0-0.71-0.13-0.95-0.4c-0.27-0.27-0.4-0.58-0.4-0.95c0-0.4,0.13-0.71,0.4-0.98c0.25-0.27,0.55-0.4,0.95-0.4
		C1207.74,394.28,1208.08,394.41,1208.34,394.68z"/>
	<path class="st0" d="M1215.31,394.68c0.26,0.27,0.4,0.58,0.4,0.98c0,0.38-0.13,0.69-0.4,0.95c-0.27,0.27-0.6,0.4-0.95,0.4
		c-0.4,0-0.71-0.13-0.96-0.4c-0.27-0.27-0.4-0.58-0.4-0.95c0-0.4,0.13-0.71,0.4-0.98c0.25-0.27,0.55-0.4,0.96-0.4
		C1214.7,394.28,1215.04,394.41,1215.31,394.68z"/>
</g>
<g>
	<g>
		
			<linearGradient id="SVGID_1_" gradientUnits="userSpaceOnUse" x1="397.7738" y1="1172.629" x2="380.0793" y2="1188.0597" gradientTransform="matrix(0.7071 -0.7071 0.7071 0.7071 -191.3091 370.841)">
			<stop  offset="0" style="stop-color:#88FFF6"/>
			<stop  offset="0.0285" style="stop-color:#87FDF4;stop-opacity:0.9968"/>
			<stop  offset="0.2198" style="stop-color:#84F7EE;stop-opacity:0.9509"/>
			<stop  offset="0.4802" style="stop-color:#7DE5DD;stop-opacity:0.8883"/>
			<stop  offset="0.485" style="stop-color:#7DE5DD;stop-opacity:0.8872"/>
			<stop  offset="0.5329" style="stop-color:#77DBD3;stop-opacity:0.8047"/>
			<stop  offset="0.6157" style="stop-color:#68BEB8;stop-opacity:0.662"/>
			<stop  offset="0.7236" style="stop-color:#4F918C;stop-opacity:0.4761"/>
			<stop  offset="0.8524" style="stop-color:#2C514E;stop-opacity:0.2543"/>
			<stop  offset="0.9974" style="stop-color:#010201;stop-opacity:4.487395e-03"/>
			<stop  offset="1" style="stop-color:#000000;stop-opacity:0"/>
		</linearGradient>
		<path class="st1" d="M932.4,919.53l-6.44,6.44c-4.01-3.43-10.06-3.24-13.86,0.55c-3.79,3.79-3.97,9.84-0.55,13.86l-3.06,3.07
			c-5.11-5.7-4.92-14.5,0.55-19.98c4.48-4.48,11.18-5.42,16.59-2.82c0.02,0.01,0.04,0.02,0.06,0.03
			C927.89,921.73,930.59,921.35,932.4,919.53z"/>
		
			<linearGradient id="SVGID_00000101808141047959402820000013956057435264161672_" gradientUnits="userSpaceOnUse" x1="1689.7367" y1="41.7369" x2="1672.0421" y2="57.1675" gradientTransform="matrix(-0.7071 0.7071 -0.7071 -0.7071 2143.8687 -216.5417)">
			<stop  offset="0" style="stop-color:#88FFF6"/>
			<stop  offset="0.0285" style="stop-color:#87FDF4;stop-opacity:0.9968"/>
			<stop  offset="0.2198" style="stop-color:#84F7EE;stop-opacity:0.9509"/>
			<stop  offset="0.4802" style="stop-color:#7DE5DD;stop-opacity:0.8883"/>
			<stop  offset="0.485" style="stop-color:#7DE5DD;stop-opacity:0.8872"/>
			<stop  offset="0.5329" style="stop-color:#77DBD3;stop-opacity:0.8047"/>
			<stop  offset="0.6157" style="stop-color:#68BEB8;stop-opacity:0.662"/>
			<stop  offset="0.7236" style="stop-color:#4F918C;stop-opacity:0.4761"/>
			<stop  offset="0.8524" style="stop-color:#2C514E;stop-opacity:0.2543"/>
			<stop  offset="0.9974" style="stop-color:#010201;stop-opacity:4.487395e-03"/>
			<stop  offset="1" style="stop-color:#000000;stop-opacity:0"/>
		</linearGradient>
		<path style="fill:url(#SVGID_00000101808141047959402820000013956057435264161672_);" d="M906.26,947.98l6.44-6.44
			c4.01,3.43,10.06,3.24,13.86-0.55c3.79-3.79,3.97-9.84,0.55-13.86l3.06-3.07c5.11,5.7,4.92,14.5-0.55,19.98
			c-4.48,4.48-11.18,5.42-16.59,2.82c-0.02-0.01-0.04-0.02-0.06-0.03C910.77,945.78,908.07,946.16,906.26,947.98z"/>
	</g>
	<path class="st0" d="M969.84,948.08h-5.59l-12.17-11.88h-7.17v11.88h-4.33v-28.66h14.79c6.43,0.19,9.57,2.93,9.94,8.25
		c0,4.85-2.66,7.6-7.97,8.25L969.84,948.08z M944.91,922.92v9.78h9.22c4.47,0,6.66-1.63,6.57-4.89c0-3.26-2.19-4.89-6.57-4.89
		L944.91,922.92L944.91,922.92z"/>
	<path class="st0" d="M973.4,948.08v-28.66h4.33v28.66H973.4z"/>
	<path class="st0" d="M1001.54,932.77v4.17h8.15c-1.42,4.83-5.94,8.16-11.16,7.95c-5.58-0.22-10.2-4.65-10.65-10.22
		c-0.53-6.56,4.66-12.07,11.11-12.07c4.37,0,8.37,2.57,10.17,6.56l3.8-1.72c-2.48-5.48-7.96-9.02-13.97-9.02
		c-8.55,0-15.49,7.04-15.32,15.63c0.16,8.17,6.84,14.85,15.02,15.01c7.68,0.15,14.19-5.3,15.43-12.83c0-0.01,0-0.01,0-0.01
		c0.1-0.65,0.15-1.3,0.15-1.95l0.02-1.51L1001.54,932.77L1001.54,932.77z"/>
</g>
<g>
	<g>
		
			<linearGradient id="SVGID_00000036237711483820072520000018356448953572954500_" gradientUnits="userSpaceOnUse" x1="979.3704" y1="646.6297" x2="886.4689" y2="727.6449" gradientTransform="matrix(0.7071 -0.7071 0.7071 0.7071 -191.3091 370.841)">
			<stop  offset="0" style="stop-color:#88FFF6"/>
			<stop  offset="0.0285" style="stop-color:#87FDF4;stop-opacity:0.9968"/>
			<stop  offset="0.2198" style="stop-color:#84F7EE;stop-opacity:0.9509"/>
			<stop  offset="0.4802" style="stop-color:#7DE5DD;stop-opacity:0.8883"/>
			<stop  offset="0.485" style="stop-color:#7DE5DD;stop-opacity:0.8872"/>
			<stop  offset="0.5329" style="stop-color:#77DBD3;stop-opacity:0.8047"/>
			<stop  offset="0.6157" style="stop-color:#68BEB8;stop-opacity:0.662"/>
			<stop  offset="0.7236" style="stop-color:#4F918C;stop-opacity:0.4761"/>
			<stop  offset="0.8524" style="stop-color:#2C514E;stop-opacity:0.2543"/>
			<stop  offset="0.9974" style="stop-color:#010201;stop-opacity:4.487395e-03"/>
			<stop  offset="1" style="stop-color:#000000;stop-opacity:0"/>
		</linearGradient>
		<path style="fill:url(#SVGID_00000036237711483820072520000018356448953572954500_);" d="M1028.17,139.69l-33.83,33.83
			c-21.05-17.97-52.84-17.01-72.74,2.9c-19.9,19.9-20.87,51.68-2.89,72.74l-16.1,16.1c-26.81-29.95-25.84-76.14,2.93-104.9
			c23.53-23.53,58.7-28.46,87.13-14.82c0.11,0.05,0.22,0.11,0.33,0.16C1004.47,151.21,1018.66,149.21,1028.17,139.69z"/>
		
			<linearGradient id="SVGID_00000152261012252637862310000008757581200630974102_" gradientUnits="userSpaceOnUse" x1="1197.0815" y1="476.2567" x2="1104.1799" y2="557.272" gradientTransform="matrix(-0.7071 0.7071 -0.7071 -0.7071 2143.8687 -216.5417)">
			<stop  offset="0" style="stop-color:#88FFF6"/>
			<stop  offset="0.0285" style="stop-color:#87FDF4;stop-opacity:0.9968"/>
			<stop  offset="0.2198" style="stop-color:#84F7EE;stop-opacity:0.9509"/>
			<stop  offset="0.4802" style="stop-color:#7DE5DD;stop-opacity:0.8883"/>
			<stop  offset="0.485" style="stop-color:#7DE5DD;stop-opacity:0.8872"/>
			<stop  offset="0.5329" style="stop-color:#77DBD3;stop-opacity:0.8047"/>
			<stop  offset="0.6157" style="stop-color:#68BEB8;stop-opacity:0.662"/>
			<stop  offset="0.7236" style="stop-color:#4F918C;stop-opacity:0.4761"/>
			<stop  offset="0.8524" style="stop-color:#2C514E;stop-opacity:0.2543"/>
			<stop  offset="0.9974" style="stop-color:#010201;stop-opacity:4.487395e-03"/>
			<stop  offset="1" style="stop-color:#000000;stop-opacity:0"/>
		</linearGradient>
		<path style="fill:url(#SVGID_00000152261012252637862310000008757581200630974102_);" d="M890.91,289.01l33.83-33.83
			c21.05,17.97,52.84,17.01,72.74-2.9c19.9-19.9,20.87-51.68,2.89-72.74l16.1-16.1c26.81,29.95,25.84,76.14-2.93,104.9
			c-23.53,23.53-58.7,28.46-87.13,14.82c-0.11-0.05-0.22-0.11-0.33-0.16C914.62,277.49,900.43,279.5,890.91,289.01z"/>
	</g>
	<g>
		<path class="st5" d="M982.63,191.26L982.63,191.26c-6.43-6.43-16.85-6.43-23.28,0l-11.64,11.64L971,226.18l11.64-11.64
			C989.06,208.11,989.06,197.69,982.63,191.26z"/>
		<path class="st6" d="M936.09,237.8L936.09,237.8c6.43,6.43,16.85,6.43,23.28,0l11.64-11.64l-23.28-23.28l-11.64,11.64
			C929.67,220.95,929.67,231.37,936.09,237.8z"/>
		<path class="st7" d="M982.63,191.26L982.63,191.26c-6.43-6.43-16.85-6.43-23.28,0l-11.64,11.64L971,226.18l11.64-11.64
			C989.06,208.11,989.06,197.69,982.63,191.26z"/>
		<g>
			<path class="st5" d="M980.16,189.48L980.16,189.48c-0.76-0.76-1.56-1.45-2.38-2.08c5.66,7.43,5.92,17.15,0.22,22.86l-11.47,11.47
				l4.45,4.45l11.47-11.47C988.79,208.38,987.76,197.09,980.16,189.48z"/>
		</g>
		<g>
			<path class="st8" d="M966.55,221.7l-11.83,11.83c-4.75,4.75-12.12,5.59-18.7,2.76c7.55,6.4,18.06,6.8,24.21,0.66l10.78-10.78
				L966.55,221.7z"/>
		</g>
		<line class="st9" x1="947.72" y1="202.9" x2="971" y2="226.18"/>
		<path class="st9" d="M936.09,237.8L936.09,237.8c-6.43-6.43-6.43-16.85,0-23.28l23.62-23.62c6.43-6.43,16.85-6.43,23.28,0l0,0
			c6.43,6.43,6.43,16.85,0,23.28l-23.62,23.62C952.95,244.23,942.53,244.23,936.09,237.8z"/>
		<path class="st7" d="M937.59,225.07c-0.01,0.09-0.02,0.17-0.02,0.26c-0.03,0.66-0.11,1.32,0.05,1.97c0.21,0.61,0.3,1.25,0.41,1.88
			c0.07,0.39-0.24,0.79-0.62,0.87c-0.42,0.09-0.63-0.21-0.73-0.51c-0.3-0.99-0.55-2-0.43-3.07c0.06-0.56-0.09-1.15,0.05-1.73
			c0.05-0.22,0.1-0.44,0.22-0.63c0.17-0.26,0.39-0.36,0.69-0.27c0.29,0.09,0.48,0.26,0.42,0.59
			C937.58,224.64,937.76,224.86,937.59,225.07z"/>
		<path class="st10" d="M939.64,220.53c0.02,0.21-0.07,0.31-0.15,0.41c-0.31,0.34-0.63,0.67-0.96,1c-0.28,0.28-0.51,0.07-0.74-0.09
			c-0.27-0.19-0.27-0.41-0.11-0.66c0.3-0.45,0.71-0.8,1.09-1.18c0.11-0.11,0.26-0.17,0.41-0.05
			C939.37,220.13,939.58,220.3,939.64,220.53z"/>
		<path class="st10" d="M940.44,233.32c-0.07,0.22-0.17,0.49-0.46,0.61c-0.26,0.1-0.46-0.07-0.63-0.23
			c-0.34-0.33-0.69-0.65-0.98-1.03c-0.23-0.3-0.21-0.55,0.06-0.82c0.26-0.25,0.51-0.27,0.77-0.02c0.37,0.36,0.75,0.72,1.13,1.08
			C940.44,233.01,940.47,233.12,940.44,233.32z"/>
	</g>
</g>
</svg>
